<?xml version="1.0" encoding="UTF-8"?>
<svg version="1.1" xmlns="http://www.w3.org/2000/svg" width="859" height="289">
<path d="M0 0 C0.69536362 -0.00335861 1.39072723 -0.00671722 2.10716248 -0.01017761 C4.38623892 -0.01960847 6.66524124 -0.02162687 8.94433594 -0.02270508 C10.54465768 -0.0259236 12.14497914 -0.02928811 13.74530029 -0.03279114 C17.09404176 -0.03876311 20.44275749 -0.04063308 23.79150391 -0.04003906 C28.05570378 -0.03993766 32.31973632 -0.05357573 36.58389664 -0.07081127 C39.88872008 -0.082001 43.19350399 -0.08395613 46.49834442 -0.08342934 C48.06901372 -0.08459951 49.63968438 -0.08896637 51.21033478 -0.0967617 C76.22137828 -0.20925852 76.22137828 -0.20925852 85.67871094 8.14526367 C91.47253571 14.26379989 94.33792099 20.53024087 96.74121094 28.52026367 C97.04091797 29.46514648 97.340625 30.4100293 97.64941406 31.38354492 C98.2900177 33.41056933 98.92199005 35.44033687 99.54638672 37.47241211 C100.98339402 42.13354575 102.45372587 46.78385374 103.92480469 51.43432617 C104.19559341 52.29109955 104.46638214 53.14787292 104.74537659 54.03060913 C105.38960296 56.06889636 106.03412483 58.10709018 106.67871094 60.14526367 C107.24389938 60.15335052 107.80908783 60.16143738 108.3914032 60.16976929 C114.28028654 60.25590677 120.16883684 60.35541439 126.05737305 60.46264648 C128.2542562 60.50090107 130.45120124 60.53576007 132.64819336 60.56713867 C135.80833026 60.61286527 138.96804244 60.67084785 142.12792969 60.73120117 C143.10831711 60.74275238 144.08870453 60.75430359 145.09880066 60.76620483 C154.09938277 60.96047298 154.09938277 60.96047298 157.67871094 63.14526367 C158.8727564 66.72740007 158.84753494 69.68147625 158.86621094 73.45776367 C158.88039063 74.75327148 158.89457031 76.0487793 158.90917969 77.38354492 C158.68690484 81.01152247 157.99930316 83.77853647 156.67871094 87.14526367 C153.04871094 87.47526367 149.41871094 87.80526367 145.67871094 88.14526367 C140.36385351 104.46424393 135.72946669 120.95489781 131.13500977 137.48876953 C119.77901385 178.29946846 119.77901385 178.29946846 108.17871094 185.58276367 C99.86271346 189.29526255 92.25351768 189.44233261 83.26123047 189.43579102 C81.91668325 189.44178482 80.57213945 189.44859231 79.2276001 189.45614624 C75.5952682 189.47372491 71.96303068 189.47849811 68.33066034 189.47977781 C66.05641748 189.48120437 63.78219824 189.48548345 61.50796127 189.49077225 C53.56014241 189.50924424 45.6123904 189.51744625 37.66455078 189.51586914 C30.27770461 189.51466788 22.89115068 189.53577433 15.50437844 189.56735647 C9.14316544 189.59357635 2.78204759 189.60423408 -3.57921898 189.60295832 C-7.37007519 189.60245045 -11.16067128 189.60803649 -14.95147324 189.62931442 C-18.51886454 189.64879422 -22.0857501 189.64875576 -25.6531601 189.63428116 C-27.57156346 189.6312207 -29.48996742 189.64780028 -31.40829468 189.66516113 C-41.5771866 189.59183201 -50.02414123 187.43964057 -57.53222656 180.27368164 C-65.28246581 171.05335061 -67.89705011 158.34577405 -71.07128906 147.02026367 C-71.58605192 145.21572524 -72.10201922 143.41152998 -72.61914062 141.60766602 C-73.40939816 138.8493014 -74.19848967 136.09064506 -74.98284912 133.33059692 C-76.72248089 127.20977822 -78.5042839 121.1029158 -80.32128906 115.00463867 C-80.55624084 114.21473541 -80.79119263 113.42483215 -81.03326416 112.61099243 C-81.9310943 109.59390955 -82.82947769 106.57700758 -83.73327637 103.56170654 C-84.34443008 101.52032293 -84.95057978 99.47751554 -85.55566406 97.43432617 C-85.89823242 96.28657715 -86.24080078 95.13882813 -86.59375 93.95629883 C-87.32128906 91.14526367 -87.32128906 91.14526367 -87.32128906 88.14526367 C-91.28128906 87.81526367 -95.24128906 87.48526367 -99.32128906 87.14526367 C-101.2411371 82.34564358 -101.61863063 79.69807319 -101.63378906 74.64526367 C-101.65054688 73.35620117 -101.66730469 72.06713867 -101.68457031 70.73901367 C-101.30384784 66.97272684 -100.66374173 65.08567265 -98.32128906 62.14526367 C-95.45576306 61.19008834 -93.55607585 60.9947217 -90.57446289 60.93994141 C-89.61369339 60.91999619 -88.65292389 60.90005096 -87.66304016 60.87950134 C-86.62858261 60.86278885 -85.59412506 60.84607635 -84.52832031 60.82885742 C-83.467155 60.80807632 -82.40598969 60.78729523 -81.31266785 60.7658844 C-77.91977469 60.70045129 -74.52680356 60.64153275 -71.13378906 60.58276367 C-68.83495284 60.53957253 -66.53612454 60.49595805 -64.23730469 60.4519043 C-58.59871546 60.34477627 -52.96004851 60.24299816 -47.32128906 60.14526367 C-47.00490479 59.05979248 -47.00490479 59.05979248 -46.68212891 57.95239258 C-44.6007442 50.82734857 -42.48735605 43.71253464 -40.35107422 36.60375977 C-39.46865776 33.64019609 -38.61479986 30.67060303 -37.77050781 27.69604492 C-34.82813959 17.6759773 -31.3448033 9.1295508 -21.76660156 3.69604492 C-14.72622712 0.64664262 -7.62532259 0.02328808 0 0 Z M-11.32128906 25.14526367 C-15.3700869 31.7747838 -17.35750614 39.11638968 -19.57128906 46.52026367 C-19.93480469 47.70749023 -20.29832031 48.8947168 -20.67285156 50.11791992 C-22.5432986 55.53741012 -22.5432986 55.53741012 -23.32128906 61.14526367 C11.65871094 61.14526367 46.63871094 61.14526367 82.67871094 61.14526367 C75.4054909 31.12668764 75.4054909 31.12668764 66.67871094 23.14526367 C63.25616704 22.00441571 60.60189571 22.00430637 56.99169922 21.98413086 C56.31654266 21.97916595 55.64138611 21.97420105 54.94577026 21.96908569 C52.71351093 21.95448769 50.48132265 21.94766621 48.24902344 21.94213867 C46.69587197 21.93638547 45.14272052 21.93062776 43.58956909 21.92486572 C40.33298411 21.9143626 37.07642376 21.90851537 33.81982422 21.9050293 C29.65125023 21.8995446 25.48300288 21.87551444 21.31453133 21.84705734 C18.10601862 21.82841478 14.89758436 21.82322452 11.68902206 21.82169342 C10.15245655 21.81867024 8.6158923 21.81065294 7.07938004 21.79750824 C4.92750581 21.78041256 2.7764267 21.78233601 0.62451172 21.78881836 C-0.59887909 21.78517273 -1.8222699 21.7815271 -3.08273315 21.777771 C-6.65298811 22.18290297 -8.48889063 22.96695633 -11.32128906 25.14526367 Z M-59.32128906 86.14526367 C-60.42346769 89.45179956 -60.21571407 90.45587874 -59.39550781 93.74291992 C-59.17572266 94.62657227 -58.9559375 95.51022461 -58.72949219 96.4206543 C-58.49166016 97.34040039 -58.25382812 98.26014648 -58.00878906 99.20776367 C-57.78255859 100.13137695 -57.55632812 101.05499023 -57.32324219 102.0065918 C-56.22420628 107.05468431 -56.22420628 107.05468431 -53.32128906 111.14526367 C-50.45240325 111.32058657 -47.68136261 111.37663981 -44.81347656 111.34057617 C-43.97285675 111.33774628 -43.13223694 111.33491638 -42.2661438 111.33200073 C-39.5760486 111.32078797 -36.88628396 111.2956817 -34.19628906 111.27026367 C-32.37467928 111.26023527 -30.55306429 111.25110918 -28.73144531 111.24291992 C-24.26126548 111.22084509 -19.79133335 111.18630801 -15.32128906 111.14526367 C-15.31109348 109.08537826 -15.30385878 107.02547806 -15.29785156 104.96557617 C-15.29132568 103.24491943 -15.29132568 103.24491943 -15.28466797 101.48950195 C-15.26506768 93.40962983 -15.26506768 93.40962983 -18.32128906 86.14526367 C-20.17132798 85.7097224 -20.17132798 85.7097224 -22.31201172 85.8046875 C-23.13271149 85.80491409 -23.95341125 85.80514069 -24.79898071 85.80537415 C-25.68548309 85.820858 -26.57198547 85.83634186 -27.48535156 85.85229492 C-28.84616348 85.85866219 -28.84616348 85.85866219 -30.23446655 85.86515808 C-33.13870638 85.88198235 -36.04225816 85.91964107 -38.94628906 85.95776367 C-40.91242489 85.97280568 -42.87857157 85.98649492 -44.84472656 85.9987793 C-49.67051345 86.0318981 -54.49578452 86.08370582 -59.32128906 86.14526367 Z M9.67871094 86.14526367 C8.93137885 91.37658825 8.61648227 95.20401459 8.99121094 100.33276367 C9.06984375 101.52256836 9.14847656 102.71237305 9.22949219 103.93823242 C9.54073422 107.40067017 9.54073422 107.40067017 11.67871094 111.14526367 C23.55871094 111.14526367 35.43871094 111.14526367 47.67871094 111.14526367 C48.63973836 106.34012656 49.03937505 101.82854104 49.30371094 96.95776367 C49.35527344 96.13856445 49.40683594 95.31936523 49.45996094 94.4753418 C49.85164213 90.1824683 49.85164213 90.1824683 48.67871094 86.14526367 C35.80871094 86.14526367 22.93871094 86.14526367 9.67871094 86.14526367 Z M75.67871094 86.14526367 C72.73133888 94.10094985 72.73133888 94.10094985 72.67871094 111.14526367 C85.54871094 111.14526367 98.41871094 111.14526367 111.67871094 111.14526367 C116.9463548 95.29533604 116.9463548 95.29533604 116.67871094 87.14526367 C115.46799298 85.70601499 115.46799298 85.70601499 111.89331055 86.03173828 C110.20588364 86.03189745 108.51845189 86.0375945 106.83105469 86.04760742 C105.94462784 86.04902237 105.05820099 86.05043732 104.14491272 86.05189514 C101.30197839 86.05751152 98.45912163 86.07006676 95.61621094 86.08276367 C93.69368603 86.08777656 91.77115989 86.09233984 89.84863281 86.09643555 C85.12529545 86.10748627 80.40201636 86.12476185 75.67871094 86.14526367 Z M-47.32128906 134.14526367 C-46.8694283 140.57412301 -45.92663304 146.40959917 -43.88378906 152.52026367 C-43.66658203 153.20475586 -43.449375 153.88924805 -43.22558594 154.59448242 C-41.59730816 160.71485302 -41.59730816 160.71485302 -37.61938477 165.23608398 C-34.76562001 166.36509917 -32.52826524 166.37186547 -29.46191406 166.34057617 C-28.346875 166.33413086 -27.23183594 166.32768555 -26.08300781 166.32104492 C-24.92414063 166.30428711 -23.76527344 166.2875293 -22.57128906 166.27026367 C-21.39695312 166.26124023 -20.22261719 166.2522168 -19.01269531 166.24291992 C-16.1153537 166.2193643 -13.21842465 166.1864702 -10.32128906 166.14526367 C-8.54053608 160.80300472 -10.00641531 155.10422042 -10.63378906 149.58276367 C-10.76462891 148.3252832 -10.89546875 147.06780273 -11.03027344 145.7722168 C-11.16369141 144.5740332 -11.29710937 143.37584961 -11.43457031 142.14135742 C-11.55614502 141.03977295 -11.67771973 139.93818848 -11.80297852 138.80322266 C-12.09237135 136.00171789 -12.09237135 136.00171789 -14.32128906 134.14526367 C-16.83049752 133.97030762 -19.22753847 133.91356799 -21.73535156 133.94995117 C-22.82981094 133.95419601 -22.82981094 133.95419601 -23.94638062 133.95852661 C-26.27984934 133.96973365 -28.61293609 133.99483857 -30.94628906 134.02026367 C-32.52701269 134.03029282 -34.10774233 134.03941879 -35.68847656 134.04760742 C-39.5662282 134.06967462 -43.44369384 134.10420752 -47.32128906 134.14526367 Z M12.67871094 134.14526367 C12.67871094 140.75908677 12.80941191 146.99931545 13.55371094 153.52026367 C13.63234375 154.30014648 13.71097656 155.0800293 13.79199219 155.88354492 C13.87578125 156.63764648 13.95957031 157.39174805 14.04589844 158.16870117 C14.11921387 158.83820801 14.1925293 159.50771484 14.26806641 160.19750977 C14.68410558 162.57785012 14.68410558 162.57785012 16.67871094 166.14526367 C24.92871094 166.14526367 33.17871094 166.14526367 41.67871094 166.14526367 C43.00269928 161.51130448 43.94496537 158.10968324 44.34667969 153.50073242 C44.43498047 152.49461914 44.52328125 151.48850586 44.61425781 150.4519043 C44.69740234 149.42258789 44.78054687 148.39327148 44.86621094 147.33276367 C44.96095703 146.28411133 45.05570313 145.23545898 45.15332031 144.1550293 C45.87322417 138.99850417 45.87322417 138.99850417 44.67871094 134.14526367 C34.11871094 134.14526367 23.55871094 134.14526367 12.67871094 134.14526367 Z M70.67871094 134.14526367 C68.52475305 138.45317944 68.75016118 143.88670134 68.26660156 148.63134766 C68.05411398 150.70383263 67.83163723 152.7750844 67.60839844 154.84643555 C67.40730469 156.79066406 67.40730469 156.79066406 67.20214844 158.77416992 C67.07759277 159.97114502 66.95303711 161.16812012 66.82470703 162.40136719 C66.77652832 163.30685303 66.72834961 164.21233887 66.67871094 165.14526367 C69.25470327 167.72125601 76.5261008 166.33084819 79.99121094 166.33276367 C81.72274414 166.35113281 81.72274414 166.35113281 83.48925781 166.36987305 C84.59978516 166.37180664 85.7103125 166.37374023 86.85449219 166.37573242 C87.87454346 166.37984131 88.89459473 166.3839502 89.94555664 166.38818359 C92.72851984 166.14083671 94.34636279 165.6509948 96.67871094 164.14526367 C101.46087468 156.25801444 105.46851593 143.09428865 103.67871094 134.14526367 C92.78871094 134.14526367 81.89871094 134.14526367 70.67871094 134.14526367 Z " fill="#FE7C00" transform="translate(148.3212890625,45.854736328125)"/>
<path d="M0 0 C4.14581887 -0.02886751 8.29161216 -0.04675327 12.4375 -0.0625 C14.21350586 -0.07506836 14.21350586 -0.07506836 16.02539062 -0.08789062 C17.15009766 -0.09111328 18.27480469 -0.09433594 19.43359375 -0.09765625 C20.47572021 -0.10289307 21.51784668 -0.10812988 22.59155273 -0.11352539 C25 0 25 0 26 1 C26.12396871 3.14668285 26.1780072 5.29742387 26.20532227 7.44750977 C26.21522186 8.12065216 26.22512146 8.79379456 26.23532104 9.48733521 C26.26701838 11.72198925 26.29172574 13.95666458 26.31640625 16.19140625 C26.33696869 17.73697984 26.35796496 19.28254772 26.37937927 20.82810974 C26.43467337 24.90350732 26.48405013 28.97895625 26.53222656 33.05444336 C26.58238817 37.2101704 26.63810204 41.36582252 26.69335938 45.52148438 C26.80103064 53.6809263 26.90245552 61.84043076 27 70 C28.57447534 68.28137455 30.14700822 66.56096948 31.71875 64.83984375 C32.59466797 63.88198975 33.47058594 62.92413574 34.37304688 61.93725586 C36.82206737 59.19895051 39.17501823 56.40625434 41.5 53.5625 C42.2528125 52.67046875 43.005625 51.7784375 43.78125 50.859375 C46.09695453 48.01602929 46.09695453 48.01602929 47.90625 44.640625 C52.13955643 37.91156328 52.13955643 37.91156328 56 36 C64.22106043 34.51954187 72.72609969 35.26244089 81 36 C81.495 35.01 81.495 35.01 82 34 C82 34.66 82 35.32 82 36 C83.65 36 85.3 36 87 36 C85.40207049 39.8624239 82.77850487 42.58217802 79.9375 45.5625 C76.32951001 49.41569892 72.86407064 53.31356011 69.5625 57.4375 C65.58763244 62.40067401 61.32792227 67.03034251 56.89672852 71.58569336 C54.95456804 73.62710921 53.22789577 75.56395395 51.91796875 78.0703125 C52.05056301 81.18943473 53.78185285 82.63702239 55.8125 84.9375 C56.6478125 85.91074219 57.483125 86.88398438 58.34375 87.88671875 C58.78460937 88.3976709 59.22546875 88.90862305 59.6796875 89.43505859 C61.81737888 91.96882371 63.80770653 94.61057223 65.8125 97.25 C69.53912812 102.13669376 73.33987964 106.95803468 77.1875 111.75 C84.06824398 120.32549234 84.06824398 120.32549234 87.25 124.375 C87.79140625 125.06335938 88.3328125 125.75171875 88.890625 126.4609375 C90 128 90 128 90 129 C83.06762287 129.87238903 76.10551644 130.20925868 69.125 130.375 C68.30475342 130.41302734 67.48450684 130.45105469 66.6394043 130.49023438 C62.47326967 130.54831683 60.6101388 130.47178339 57.2265625 127.85546875 C56.49179687 126.91316406 55.75703125 125.97085938 55 125 C54.22140625 124.03964844 53.4428125 123.07929688 52.640625 122.08984375 C51.85171875 121.04957031 51.0628125 120.00929688 50.25 118.9375 C49.81880859 118.37023193 49.38761719 117.80296387 48.94335938 117.21850586 C47.62519367 115.48177912 46.31250004 113.74101032 45 112 C44.24203125 111.00226563 43.4840625 110.00453125 42.703125 108.9765625 C36.98542099 101.41378379 31.5155559 93.72177826 26 86 C26 100.19 26 114.38 26 129 C19.79428615 129.62057139 14.09987449 130.13753789 7.9375 130.125 C6.00197266 130.12886719 6.00197266 130.12886719 4.02734375 130.1328125 C1 130 1 130 0 129 C-0.11038556 127.37497843 -0.15128955 125.74519476 -0.16494751 124.1164856 C-0.17618149 123.059263 -0.18741547 122.00204041 -0.19898987 120.91278076 C-0.20631638 119.74289612 -0.21364288 118.57301147 -0.22119141 117.36767578 C-0.2326973 116.14339874 -0.24420319 114.9191217 -0.25605774 113.65774536 C-0.28655035 110.28995073 -0.31254357 106.92218051 -0.3362546 103.55433512 C-0.36179919 100.03496825 -0.39214426 96.51564221 -0.42172241 92.99630737 C-0.47060614 87.08301127 -0.51527338 81.16969395 -0.55761719 75.25634766 C-0.60666001 68.41659122 -0.6629624 61.57692295 -0.72303832 54.73725522 C-0.77436381 48.87144656 -0.82170526 43.00561554 -0.86572587 37.1397475 C-0.89204608 33.63357976 -0.91976882 30.12743806 -0.9510994 26.62131119 C-0.98578176 22.71127953 -1.01211616 18.80121625 -1.03759766 14.89111328 C-1.04897263 13.7252771 -1.0603476 12.55944092 -1.07206726 11.35827637 C-1.07766159 10.29541412 -1.08325592 9.23255188 -1.08901978 8.13748169 C-1.09601709 7.21237856 -1.10301441 6.28727543 -1.11022377 5.33413887 C-1 3 -1 3 0 0 Z " fill="#00141E" transform="translate(531,77)"/>
<path d="M0 0 C4.59872356 4.12270042 7.38484778 7.9798872 9 14 C9.66 14.33 10.32 14.66 11 15 C12.11470162 20.56612596 12.32247736 26.21302848 12.5625 31.875 C12.6049585 32.865 12.64741699 33.855 12.69116211 34.875 C13.32862739 52.23662979 13.08148445 69.63002219 13 87 C10.50018262 87.1698905 8.00020399 87.33597953 5.5 87.5 C4.45585938 87.57154297 4.45585938 87.57154297 3.390625 87.64453125 C-1.41695525 87.95613367 -6.18228746 88.04340282 -11 88 C-12.125 83.25 -12.125 83.25 -11 81 C-14.23001012 81.62922275 -15.34620314 82.26311439 -18.125 84.375 C-26.08628005 90.19415597 -35.40444022 90.96733917 -45 90 C-54.9836261 88.17750109 -62.40120014 84.37939368 -68.40234375 76.0546875 C-72.53485824 68.78969762 -72.73777461 60.45066435 -70.8515625 52.453125 C-68.38913984 45.35954046 -63.8060062 39.30542595 -57 36 C-45.72821151 31.74785473 -35.41900177 30.84482834 -23.5 30.9375 C-21.83710937 30.94426758 -21.83710937 30.94426758 -20.140625 30.95117188 C-17.42702601 30.96286842 -14.71354239 30.97925914 -12 31 C-12.47859241 29.39566191 -12.95789558 27.79153584 -13.4375 26.1875 C-13.70433594 25.29417969 -13.97117187 24.40085938 -14.24609375 23.48046875 C-15.09091023 19.62105314 -15.09091023 19.62105314 -17.71484375 17.05078125 C-29.43391816 13.15815372 -39.76728567 14.98598321 -50.828125 20.37890625 C-52.92331421 21.5352135 -54.97602174 22.72390001 -57 24 C-60.50297874 19.97806144 -66 13.60566856 -66 8 C-66.99 8.33 -67.98 8.66 -69 9 C-69 8.34 -69 7.68 -69 7 C-51.61122039 -8.5831727 -19.90895262 -13.23928675 0 0 Z M-42.8125 51 C-45.52609313 54.72149915 -45.80121642 57.09240703 -45.53125 61.62109375 C-44.7210396 65.24916824 -42.9567594 66.86838276 -40 69 C-33.71236502 71.09587833 -27.24328649 70.40380039 -21.08203125 68.10546875 C-17.43386207 66.16844834 -15.04136156 63.56871121 -13 60 C-12.01592762 56.44892109 -12.01592762 56.44892109 -12 53 C-11.95875 52.05125 -11.9175 51.1025 -11.875 50.125 C-11.76297436 48.01557103 -11.76297436 48.01557103 -13 47 C-22.1785608 46.37943693 -34.82297312 45.69240351 -42.8125 51 Z " fill="#00151F" transform="translate(695,119)"/>
<path d="M0 0 C9.29212323 8.73529187 15.01562781 21.40376025 15.7421875 34.13671875 C15.60901569 46.97115238 12.92866752 59.94711748 4.7109375 70.1484375 C4.0509375 70.1484375 3.3909375 70.1484375 2.7109375 70.1484375 C2.47246094 70.73625 2.23398437 71.3240625 1.98828125 71.9296875 C-2.32542694 79.42261182 -12.41545662 82.86659631 -20.2890625 85.1484375 C-23.2890625 85.8984375 -23.2890625 85.8984375 -26.2890625 86.1484375 C-27.02898437 86.21160156 -27.76890625 86.27476562 -28.53125 86.33984375 C-42.72527985 86.99268489 -56.36452913 82.52924473 -66.9765625 73.0859375 C-73.33094442 66.30893635 -77.05087066 58.24351941 -78.2890625 49.1484375 C-78.9490625 48.8184375 -79.6090625 48.4884375 -80.2890625 48.1484375 C-80.72660056 31.71645262 -79.35417357 16.98182298 -68.2890625 4.1484375 C-67.53689453 3.23771484 -67.53689453 3.23771484 -66.76953125 2.30859375 C-50.09186437 -16.23567332 -18.45175293 -14.92513803 0 0 Z M-49.2890625 18.1484375 C-54.85701414 26.94651493 -55.48724505 36.80703085 -53.828125 46.97265625 C-51.96705924 54.12133826 -48.60627653 58.98503704 -42.4140625 63.0234375 C-35.57434154 65.48573705 -29.07945905 65.94030786 -22.2890625 63.1484375 C-16.46417574 59.29224069 -12.46135403 54.85435064 -10.7421875 47.953125 C-9.21995193 38.5310117 -8.95716333 28.3662491 -14.2890625 20.1484375 C-14.9903125 19.0553125 -15.6915625 17.9621875 -16.4140625 16.8359375 C-20.71174859 12.81853529 -25.90041602 10.38339758 -31.82421875 9.97265625 C-38.72971445 10.46512425 -44.50382626 13.14063213 -49.2890625 18.1484375 Z " fill="#00141E" transform="translate(502.2890625,122.8515625)"/>
<path d="M0 0 C3 1 3 1 5 2 C4.67 9.26 4.34 16.52 4 24 C-6.4392422 29.2196211 -19.3285724 25 -31 25 C-31 58.99 -31 92.98 -31 128 C-39.58 128.33 -48.16 128.66 -57 129 C-58 128 -58 128 -58.12304783 126.25274563 C-58.12212604 125.48673566 -58.12120424 124.72072569 -58.12025452 123.9315033 C-58.12162918 123.05505661 -58.12300385 122.17860992 -58.12442017 121.27560425 C-58.11902725 119.82228195 -58.11902725 119.82228195 -58.11352539 118.33959961 C-58.11367142 117.32508224 -58.11381744 116.31056488 -58.1139679 115.26530457 C-58.11326829 111.89429627 -58.10547368 108.52334246 -58.09765625 105.15234375 C-58.09579224 102.82206757 -58.09436826 100.491791 -58.09336853 98.16151428 C-58.08954202 92.01462735 -58.0797106 85.86776387 -58.06866455 79.72088623 C-58.05845329 73.45390134 -58.05387152 67.18691268 -58.04882812 60.91992188 C-58.03808845 48.61326926 -58.02049058 36.30664025 -58 24 C-69.22 24 -80.44 24 -92 24 C-92 16.41 -92 8.82 -92 1 C-61.64 1.33 -31.28 1.66 0 2 C0 1.34 0 0.68 0 0 Z " fill="#00141E" transform="translate(426,78)"/>
<path d="M0 0 C1.61648438 0.01353516 1.61648438 0.01353516 3.265625 0.02734375 C4.08546875 0.03894531 4.9053125 0.05054687 5.75 0.0625 C6.55866672 3.53949463 6.82549313 6.58412444 6.62890625 10.14453125 C6.58056641 11.07587891 6.53222656 12.00722656 6.48242188 12.96679688 C6.42634766 13.92650391 6.37027344 14.88621094 6.3125 15.875 C6.26029297 16.85404297 6.20808594 17.83308594 6.15429688 18.84179688 C6.02512661 21.2490609 5.89018357 23.65585638 5.75 26.0625 C4.87335693 26.05053589 4.87335693 26.05053589 3.97900391 26.03833008 C-8.6580926 25.90084498 -8.6580926 25.90084498 -19.69818115 31.35476685 C-25.63006528 37.8826391 -25.84974551 46.85656917 -25.859375 55.1953125 C-25.87591125 56.31316132 -25.89244751 57.43101013 -25.90948486 58.58273315 C-25.95767746 62.11771293 -25.97927254 65.65226341 -26 69.1875 C-26.0281836 71.5989796 -26.05811433 74.01043945 -26.08984375 76.421875 C-26.1634286 82.30200613 -26.21523891 88.18201795 -26.25 94.0625 C-28.01292009 94.22747978 -29.77596532 94.39112277 -31.5390625 94.55419922 C-32.52084473 94.64547089 -33.50262695 94.73674255 -34.51416016 94.83078003 C-37.43331127 95.07802609 -40.32044012 95.19621893 -43.25 95.1875 C-44.136875 95.19007813 -45.02375 95.19265625 -45.9375 95.1953125 C-48.25 95.0625 -48.25 95.0625 -51.25 94.0625 C-51.25 63.3725 -51.25 32.6825 -51.25 1.0625 C-43.33 1.0625 -35.41 1.0625 -27.25 1.0625 C-26.25 2.0625 -26.25 2.0625 -26.25 6 C-26.270625 6.71027344 -26.29125 7.42054687 -26.3125 8.15234375 C-26.38026339 10.150077 -26.38026339 10.150077 -25.25 12.0625 C-24.8375 11.60359375 -24.425 11.1446875 -24 10.671875 C-17.03366838 3.27014765 -10.18967464 -0.11075733 0 0 Z " fill="#00151F" transform="translate(777.25,111.9375)"/>
<path d="M0 0 C1.00023193 0.00523682 2.00046387 0.01047363 3.03100586 0.01586914 C4.1105957 0.0190918 5.19018555 0.02231445 6.30249023 0.02563477 C8.00695312 0.03820312 8.00695312 0.03820312 9.74584961 0.05102539 C11.45611328 0.05779297 11.45611328 0.05779297 13.20092773 0.06469727 C16.02845312 0.07652792 18.85587601 0.09301129 21.68334961 0.11352539 C21.81577046 8.84313581 21.94626789 17.57277247 22.07450104 26.30244541 C22.13414123 30.3587081 22.19437352 34.41495994 22.25610352 38.47119141 C22.53287969 56.68641342 22.76874086 74.89553924 22.68334961 93.11352539 C20.38447644 94.26296197 19.06244347 94.24251445 16.50756836 94.24633789 C15.6793457 94.24762695 14.85112305 94.24891602 13.99780273 94.25024414 C12.69746094 94.24444336 12.69746094 94.24444336 11.37084961 94.23852539 C10.51555664 94.24239258 9.66026367 94.24625977 8.77905273 94.25024414 C7.94696289 94.24895508 7.11487305 94.24766602 6.25756836 94.24633789 C5.50048584 94.24520996 4.74340332 94.24408203 3.96337891 94.24291992 C1.46359104 94.10105382 -0.8683955 93.62437543 -3.31665039 93.11352539 C-3.33977229 81.1354898 -3.35756469 69.15745948 -3.36846256 57.17940617 C-3.37369173 51.61813128 -3.38078997 46.0568716 -3.39208984 40.49560547 C-3.40291754 35.1334512 -3.40892697 29.77131161 -3.41152763 24.40914726 C-3.4133821 22.35852261 -3.41700311 20.30789879 -3.42238045 18.25728035 C-3.42958932 15.39562336 -3.4306414 12.53402782 -3.43017578 9.67236328 C-3.43377106 8.81569061 -3.43736633 7.95901794 -3.44107056 7.0763855 C-3.42882432 0.16802648 -3.42882432 0.16802648 0 0 Z " fill="#00151F" transform="translate(797.316650390625,112.886474609375)"/>
<path d="M0 0 C0.99 0.33 1.98 0.66 3 1 C3.495 2.485 3.495 2.485 4 4 C-27.02 4 -58.04 4 -90 4 C-90 10.27 -90 16.54 -90 23 C-89.34 22.67 -88.68 22.34 -88 22 C-85.77253661 21.90227189 -83.5421053 21.86922606 -81.3125 21.8671875 C-80.32503784 21.86575241 -80.32503784 21.86575241 -79.31762695 21.86428833 C-77.92561752 21.86360775 -76.5336049 21.86545354 -75.14160156 21.86962891 C-73.00839117 21.87497896 -70.87539133 21.86967988 -68.7421875 21.86328125 C-67.39062453 21.86394205 -66.0390617 21.86522326 -64.6875 21.8671875 C-62.83705078 21.86887939 -62.83705078 21.86887939 -60.94921875 21.87060547 C-58 22 -58 22 -56 23 C-56 56.99 -56 90.98 -56 126 C-48.74 126 -41.48 126 -34 126 C-34.01571045 121.43418091 -34.01571045 121.43418091 -34.03173828 116.77612305 C-34.06483617 106.73381026 -34.08695293 96.6914951 -34.10362434 86.64914227 C-34.11407407 80.55879017 -34.12825498 74.46849383 -34.15087891 68.37817383 C-34.17256485 62.50378176 -34.18455966 56.62944342 -34.18975449 50.75501442 C-34.19345789 48.51066047 -34.20068942 46.26630954 -34.21146011 44.02197838 C-34.22591849 40.8852738 -34.22798031 37.74879293 -34.22705078 34.61206055 C-34.23424133 33.67842178 -34.24143188 32.74478302 -34.24884033 31.78285217 C-34.246091 30.92889862 -34.24334167 30.07494507 -34.24050903 29.19511414 C-34.24235262 28.45307078 -34.24419621 27.71102743 -34.24609566 26.94649792 C-34 25 -34 25 -32 22 C-29.37537756 21.73302112 -26.98934067 21.65167016 -24.3671875 21.70703125 C-23.23943405 21.71339851 -23.23943405 21.71339851 -22.08889771 21.71989441 C-19.68390315 21.7367083 -17.27974191 21.77436376 -14.875 21.8125 C-13.24610584 21.82754341 -11.61719856 21.84123242 -9.98828125 21.85351562 C-5.991607 21.88407124 -1.99673784 21.94278265 2 22 C2 16.72 2 11.44 2 6 C2.66 6 3.32 6 4 6 C4 11.94 4 17.88 4 24 C-6.4392422 29.2196211 -19.3285724 25 -31 25 C-31 58.99 -31 92.98 -31 128 C-39.58 128.33 -48.16 128.66 -57 129 C-58 128 -58 128 -58.12304783 126.25274563 C-58.12212604 125.48673566 -58.12120424 124.72072569 -58.12025452 123.9315033 C-58.12162918 123.05505661 -58.12300385 122.17860992 -58.12442017 121.27560425 C-58.11902725 119.82228195 -58.11902725 119.82228195 -58.11352539 118.33959961 C-58.11367142 117.32508224 -58.11381744 116.31056488 -58.1139679 115.26530457 C-58.11326829 111.89429627 -58.10547368 108.52334246 -58.09765625 105.15234375 C-58.09579224 102.82206757 -58.09436826 100.491791 -58.09336853 98.16151428 C-58.08954202 92.01462735 -58.0797106 85.86776387 -58.06866455 79.72088623 C-58.05845329 73.45390134 -58.05387152 67.18691268 -58.04882812 60.91992188 C-58.03808845 48.61326926 -58.02049058 36.30664025 -58 24 C-69.22 24 -80.44 24 -92 24 C-92 16.41 -92 8.82 -92 1 C-61.64 1.33 -31.28 1.66 0 2 C0 1.34 0 0.68 0 0 Z " fill="#0C0E11" transform="translate(426,78)"/>
<path d="M0 0 C3.49253147 1.88685493 6.34709608 3.65574958 8.09375 7.24609375 C9.25090451 11.89279234 9.32375346 15.4207872 8.03125 20.05859375 C5.4043396 24.38028505 2.86246879 26.46944039 -2.05078125 27.84765625 C-6.14286962 28.5587176 -9.07657394 28.54016467 -12.78125 26.55859375 C-16.22520759 24.01006513 -18.39029175 22.09056726 -19.55859375 17.9140625 C-20.28534816 11.59229466 -19.77031156 8.36336446 -15.90625 3.24609375 C-11.44067775 -0.81351739 -5.80311061 -2.29508268 0 0 Z " fill="#001620" transform="translate(811.90625,71.75390625)"/>
<path d="M0 0 C0.66 0 1.32 0 2 0 C2 5.94 2 11.88 2 18 C-8.4392422 23.2196211 -21.3285724 19 -33 19 C-33 52.99 -33 86.98 -33 122 C-41.58 122.33 -50.16 122.66 -59 123 C-58.67 121.68 -58.34 120.36 -58 119 C-50.74 119.33 -43.48 119.66 -36 120 C-36.01047363 116.95612061 -36.02094727 113.91224121 -36.03173828 110.77612305 C-36.06483617 100.73381026 -36.08695293 90.6914951 -36.10362434 80.64914227 C-36.11407407 74.55879017 -36.12825498 68.46849383 -36.15087891 62.37817383 C-36.17256485 56.50378176 -36.18455966 50.62944342 -36.18975449 44.75501442 C-36.19345789 42.51066047 -36.20068942 40.26630954 -36.21146011 38.02197838 C-36.22591849 34.8852738 -36.22798031 31.74879293 -36.22705078 28.61206055 C-36.23424133 27.67842178 -36.24143188 26.74478302 -36.24884033 25.78285217 C-36.246091 24.92889862 -36.24334167 24.07494507 -36.24050903 23.19511414 C-36.24235262 22.45307078 -36.24419621 21.71102743 -36.24609566 20.94649792 C-36 19 -36 19 -34 16 C-31.37537756 15.73302112 -28.98934067 15.65167016 -26.3671875 15.70703125 C-25.23943405 15.71339851 -25.23943405 15.71339851 -24.08889771 15.71989441 C-21.68390315 15.7367083 -19.27974191 15.77436376 -16.875 15.8125 C-15.24610584 15.82754341 -13.61719856 15.84123242 -11.98828125 15.85351562 C-7.991607 15.88407124 -3.99673784 15.94278265 0 16 C0 10.72 0 5.44 0 0 Z " fill="#010407" transform="translate(428,84)"/>
<path d="M0 0 C0.33 0 0.66 0 1 0 C1.26510153 8.20797168 1.52610145 16.41606048 1.78230286 24.62431431 C1.90147306 28.43848985 2.02189475 32.25261605 2.14550781 36.06665039 C2.71654821 53.71525457 3.1625117 71.33926663 3 89 C0.70112683 90.14943658 -0.62090614 90.12898906 -3.17578125 90.1328125 C-4.00400391 90.13410156 -4.83222656 90.13539063 -5.68554688 90.13671875 C-6.98588867 90.13091797 -6.98588867 90.13091797 -8.3125 90.125 C-9.16779297 90.12886719 -10.02308594 90.13273437 -10.90429688 90.13671875 C-11.73638672 90.13542969 -12.56847656 90.13414062 -13.42578125 90.1328125 C-14.18286377 90.13168457 -14.93994629 90.13055664 -15.7199707 90.12939453 C-18 90 -18 90 -23 89 C-23 63.26 -23 37.52 -23 11 C-22.34 10.67 -21.68 10.34 -21 10 C-19.53146 12.93708001 -19.86980451 15.89343705 -19.88647461 19.11181641 C-19.88632858 19.84362625 -19.88618256 20.5754361 -19.8860321 21.329422 C-19.88672997 23.75349876 -19.89451646 26.17749912 -19.90234375 28.6015625 C-19.90420838 30.28022215 -19.90563207 31.95888234 -19.90663147 33.63754272 C-19.91045312 38.05987038 -19.92028041 42.48216528 -19.93133545 46.90447998 C-19.94155714 51.41548215 -19.94613072 55.92648959 -19.95117188 60.4375 C-19.96190298 69.29168338 -19.97949694 78.14583385 -20 87 C-13.4 87 -6.8 87 0 87 C0 58.29 0 29.58 0 0 Z " fill="#000508" transform="translate(817,117)"/>
<path d="M0 0 C6.46510076 0.2693792 10.3841472 2.4867217 15 7 C21 14.59235669 21 14.59235669 21 18 C21.66 18.33 22.32 18.66 23 19 C24.11470162 24.56612596 24.32247736 30.21302848 24.5625 35.875 C24.62618774 37.36 24.62618774 37.36 24.69116211 38.875 C25.32862739 56.23662979 25.08148445 73.63002219 25 91 C22.50018262 91.1698905 20.00020399 91.33597953 17.5 91.5 C16.45585938 91.57154297 16.45585938 91.57154297 15.390625 91.64453125 C10.58304475 91.95613367 5.81771254 92.04340282 1 92 C-0.125 87.25 -0.125 87.25 1 85 C0.34 84.67 -0.32 84.34 -1 84 C0.485 83.01 0.485 83.01 2 82 C2 84.31 2 86.62 2 89 C8.6 89 15.2 89 22 89 C21.93681953 80.95827808 21.86118951 72.91695828 21.76428509 64.87558174 C21.71976133 61.14070971 21.68046704 57.40594225 21.65356445 53.67089844 C21.62734998 50.05912515 21.58682354 46.44775823 21.53681374 42.83623886 C21.52026652 41.46575899 21.50867727 40.09520903 21.50238609 38.72464371 C21.44272379 26.91005565 20.4410273 16.85178289 12 8 C8.24764001 5.10755584 4.27144265 3.03402031 0 1 C0 0.67 0 0.34 0 0 Z " fill="#030B0E" transform="translate(683,115)"/>
<path d="M0 0 C6.20057679 5.81953576 7.99782499 13.11619384 8.34350586 21.34912109 C8.46793911 31.82273526 7.01927038 38.83520125 0.1875 47 C-2.08864262 48.80924157 -3.39405619 49.62017291 -6.25 49.9375 C-5.09347886 46.46793657 -3.52319733 45.54190578 -0.74609375 43.32421875 C3.82592562 39.08644623 4.60507327 33.17079709 4.98828125 27.265625 C5.1985694 19.43239144 5.0750376 12.74262909 0.75 5.9375 C0.21375 5.009375 -0.3225 4.08125 -0.875 3.125 C-5.11264339 -0.77809259 -10.11218393 -2.8666779 -15.87890625 -3.2265625 C-22.21456053 -2.82030681 -27.22943614 -1.22766532 -31.71875 3.4765625 C-36.91178875 10.08862928 -37.53661397 17.80213591 -37.875 25.9375 C-37.91367187 26.71222656 -37.95234375 27.48695313 -37.9921875 28.28515625 C-38.08521357 30.16893415 -38.16863175 32.05318256 -38.25 33.9375 C-40.78451245 31.40298755 -40.55891854 29.69027106 -40.63012695 26.22387695 C-40.60903076 16.81597925 -39.73065462 9.33146563 -33.9375 1.5625 C-23.23750903 -8.88865397 -11.83678285 -7.5118045 0 0 Z " fill="#03090E" transform="translate(486.25,137.0625)"/>
<path d="M0 0 C0.66 0 1.32 0 2 0 C3.19404546 3.58213639 3.168824 6.53621258 3.1875 10.3125 C3.20167969 11.60800781 3.21585937 12.90351562 3.23046875 14.23828125 C3.00819391 17.8662588 2.32059222 20.6332728 1 24 C-2.63 24.33 -6.26 24.66 -10 25 C-14.79263352 39.80339397 -19.13151206 54.71857978 -23.375 69.6875 C-24.02188509 71.96165976 -24.66901906 74.23574875 -25.31640625 76.50976562 C-26.88046455 82.00570053 -28.44148541 87.50249061 -30 93 C-30.99 93 -31.98 93 -33 93 C-32.80664062 92.24976563 -32.61328125 91.49953125 -32.4140625 90.7265625 C-31.14291753 85.73008178 -29.92247202 80.76109612 -29 75.6875 C-28.33163973 72.2196963 -27.33002717 69.27229746 -25.83984375 66.0546875 C-24.01663454 61.59418498 -22.90164884 56.87234515 -21.61962891 52.23388672 C-20.38888717 47.79681546 -19.13183863 43.36723445 -17.875 38.9375 C-17.49444458 37.58084229 -17.49444458 37.58084229 -17.10620117 36.19677734 C-14.55251326 27.18842598 -14.55251326 27.18842598 -13 24 C-11 23 -11 23 -1 22 C-0.67 14.74 -0.34 7.48 0 0 Z " fill="#FD6E03" transform="translate(304,109)"/>
<path d="M0 0 C7.92 0 15.84 0 24 0 C23.67 1.32 23.34 2.64 23 4 C22.67 3.67 22.34 3.34 22 3 C15.4 2.67 8.8 2.34 2 2 C2 32.03 2 62.06 2 93 C1.34 93 0.68 93 0 93 C0 62.31 0 31.62 0 0 Z " fill="#020507" transform="translate(726,113)"/>
<path d="M0 0 C3.49253147 1.88685493 6.34709608 3.65574958 8.09375 7.24609375 C8.61749325 10.23817153 8.9059683 13.21568569 9.09375 16.24609375 C8.10375 16.24609375 7.11375 16.24609375 6.09375 16.24609375 C5.99578125 15.55902344 5.8978125 14.87195313 5.796875 14.1640625 C5.64734375 13.26300781 5.4978125 12.36195312 5.34375 11.43359375 C5.20453125 10.54027344 5.0653125 9.64695312 4.921875 8.7265625 C3.88863318 5.63171084 2.95509807 4.77313443 0.09375 3.24609375 C-5.07784237 2.32121881 -9.50270227 2.44799798 -14.09375 5.05859375 C-16.77761407 9.77849262 -16.85150774 13.9478844 -15.90625 19.24609375 C-14.32291667 22.66276042 -14.32291667 22.66276042 -10.90625 24.24609375 C-7.10714453 24.92389517 -3.69957293 24.98194136 0.09375 24.24609375 C3.18173674 21.99551808 3.18173674 21.99551808 5.09375 19.24609375 C5.75375 18.91609375 6.41375 18.58609375 7.09375 18.24609375 C6.89227906 21.87257071 6.33792598 23.02633536 3.59375 25.49609375 C-0.64665716 27.61629733 -4.15718357 28.60124133 -8.90625 28.24609375 C-13.31776489 26.72458862 -16.42091672 24.17705068 -18.90625 20.24609375 C-20.25901857 15.41014862 -20.65347754 10.81379826 -18.21875 6.30859375 C-13.68795431 0.30835082 -7.61226461 -3.01058826 0 0 Z " fill="#070E12" transform="translate(811.90625,71.75390625)"/>
<path d="M0 0 C1.47118538 0.03014442 1.47118538 0.03014442 2.97209167 0.06089783 C4.028423 0.08793289 5.08475433 0.11496796 6.1730957 0.14282227 C7.25645706 0.16643326 8.33981842 0.19004425 9.45600891 0.21437073 C12.92043115 0.29101938 16.38463055 0.37503891 19.84887695 0.45922852 C22.19587121 0.51244797 24.54287639 0.56518838 26.88989258 0.61743164 C32.64719229 0.74663619 38.40432613 0.88189485 44.16137695 1.02172852 C41.07354717 2.81630527 38.85709261 3.26749544 35.30102539 3.2487793 C34.34033142 3.24862823 33.37963745 3.24847717 32.38983154 3.24832153 C31.36053528 3.23799896 30.33123901 3.22767639 29.27075195 3.21704102 C28.21100159 3.21421112 27.15125122 3.21138123 26.05938721 3.20846558 C22.67660198 3.19727586 19.29408208 3.17217322 15.91137695 3.14672852 C13.61710995 3.13669716 11.32283878 3.12757159 9.02856445 3.11938477 C3.40598431 3.09904258 -2.21602257 3.05989096 -7.83862305 3.02172852 C-7.83862305 9.95172852 -7.83862305 16.88172852 -7.83862305 24.02172852 C-8.49862305 24.02172852 -9.15862305 24.02172852 -9.83862305 24.02172852 C-11.03529508 20.43171242 -11.04401186 17.43124462 -11.08862305 13.64672852 C-11.1144043 12.33961914 -11.14018555 11.03250977 -11.16674805 9.68579102 C-10.82411671 5.85974111 -10.2226211 3.996156 -7.83862305 1.02172852 C-4.87100415 0.03252222 -3.08404489 -0.07135322 0 0 Z " fill="#FD6A01" transform="translate(57.838623046875,106.978271484375)"/>
<path d="M0 0 C2.9953718 3.55007028 5.37652535 7.20244175 7.65625 11.23046875 C9.21804484 13.28713463 10.63714147 14.02381904 13 15 C13 15.66 13 16.32 13 17 C20.56846512 19.80819926 27.22683099 20.34610854 35.25 20.125 C37.45177002 20.09254227 39.65359929 20.06387414 41.85546875 20.0390625 C42.90782715 20.02649414 43.96018555 20.01392578 45.04443359 20.00097656 C50.72138773 19.99910081 56.35238936 20.43422863 62 21 C62 21.66 62 22.32 62 23 C56.48654319 23.0996177 50.97362172 23.1718191 45.45947266 23.21972656 C43.58763491 23.23971863 41.71585862 23.26692168 39.84423828 23.30175781 C26.64779627 23.54105329 15.90414248 23.54482819 5.765625 14.00390625 C2.88091269 10.72988542 0.46441379 7.12916674 -1 3 C-0.67 2.01 -0.34 1.02 0 0 Z " fill="#FD6F04" transform="translate(85,212)"/>
<path d="M0 0 C0 23.76 0 47.52 0 72 C-0.99 72.495 -0.99 72.495 -2 73 C-2 49.9 -2 26.8 -2 3 C-4.31 3 -6.62 3 -9 3 C-8.67 2.34 -8.34 1.68 -8 1 C-2.4 0 -2.4 0 0 0 Z " fill="#000408" transform="translate(556,77)"/>
<path d="M0 0 C0.66 0 1.32 0 2 0 C3.73105754 2.15237314 5.3438165 4.31108394 6.9375 6.5625 C7.93344169 7.94542202 8.92953982 9.32823139 9.92578125 10.7109375 C10.4357666 11.4234668 10.94575195 12.13599609 11.47119141 12.87011719 C12.92266259 14.89225621 14.38541022 16.90540713 15.85546875 18.9140625 C16.3134082 19.54094971 16.77134766 20.16783691 17.24316406 20.8137207 C18.16698583 22.06642955 19.10002948 23.31238802 20.04199219 24.55151367 C22.2477383 27.47277286 24.21685755 30.29177179 25.84765625 33.57421875 C27.97531323 37.39135282 29.37674578 39.50515585 33 42 C40.84635917 43.72401247 49.01921488 43.38206389 57 43 C55.36530962 44.97184117 54.45306722 45.90928107 51.90283203 46.41992188 C49.30908738 46.47280148 46.71936058 46.50738083 44.125 46.5 C43.22652344 46.52835938 42.32804688 46.55671875 41.40234375 46.5859375 C37.01165438 46.59890852 34.73669418 46.55911638 31.1640625 43.84765625 C30.09285156 42.43806641 30.09285156 42.43806641 29 41 C28.22140625 40.03964844 27.4428125 39.07929688 26.640625 38.08984375 C25.85171875 37.04957031 25.0628125 36.00929687 24.25 34.9375 C23.81880859 34.37023193 23.38761719 33.80296387 22.94335938 33.21850586 C21.62519367 31.48177912 20.31250004 29.74101032 19 28 C17.86304688 26.50339844 17.86304688 26.50339844 16.703125 24.9765625 C12.55328926 19.48759537 8.47141745 13.94957022 4.4375 8.375 C3.77427734 7.46826538 3.77427734 7.46826538 3.09765625 6.54321289 C0 2.23152695 0 2.23152695 0 0 Z " fill="#02090D" transform="translate(557,161)"/>
<path d="M0 0 C0.33 0 0.66 0 1 0 C1 17.82 1 35.64 1 54 C-11.375 55.125 -11.375 55.125 -15.6875 54.5625 C-16.51636719 54.46066406 -17.34523438 54.35882813 -18.19921875 54.25390625 C-18.79347656 54.17011719 -19.38773438 54.08632812 -20 54 C-20 53.34 -20 52.68 -20 52 C-13.73 52 -7.46 52 -1 52 C-1.00785522 49.69044312 -1.00785522 49.69044312 -1.01586914 47.33422852 C-1.03391174 41.6446185 -1.04542929 35.95501103 -1.05493164 30.26538086 C-1.05997356 27.79857967 -1.06680691 25.33178148 -1.07543945 22.86499023 C-1.08751125 19.32795471 -1.09322956 15.79095855 -1.09765625 12.25390625 C-1.10281754 11.14350479 -1.10797882 10.03310333 -1.11329651 8.88905334 C-1.11340981 7.35757912 -1.11340981 7.35757912 -1.11352539 5.79516602 C-1.115746 4.89137711 -1.11796661 3.9875882 -1.12025452 3.05641174 C-1 1 -1 1 0 0 Z " fill="#060D12" transform="translate(750,152)"/>
<path d="M0 0 C2.06519633 1.85867669 3.21530939 3.39616927 4.5625 5.875 C8.47674624 10.89326441 14.05366088 13.01788696 20 15 C29.92740886 15.87082534 41.34427367 16.61862937 50 11 C52.42072212 8.91863345 52.42072212 8.91863345 54 7 C54.66 7 55.32 7 56 7 C54.49960393 11.50118821 50.97531826 13.78327978 47 16 C36.33002373 20.71725267 24.91359884 20.100979 14.02734375 16.40625 C8.06394065 13.63615308 2.46260931 9.26386778 0 3 C0 2.01 0 1.02 0 0 Z " fill="#050C11" transform="translate(626,190)"/>
<path d="M0 0 C4.26574402 1.54398159 6.43359946 4.75234952 9.0625 8.25 C10.04666489 9.5314114 11.03104565 10.81265703 12.015625 12.09375 C12.51384766 12.74730469 13.01207031 13.40085938 13.52539062 14.07421875 C15.75790362 16.98979202 18.0365103 19.86834065 20.3125 22.75 C22.21057671 25.16490915 24.10551864 27.58226965 26 30 C26.90613037 31.15628906 26.90613037 31.15628906 27.83056641 32.3359375 C29.76416313 34.80564352 31.69494568 37.27752496 33.625 39.75 C34.24157471 40.53729492 34.85814941 41.32458984 35.4934082 42.13574219 C36.06534912 42.86954102 36.63729004 43.60333984 37.2265625 44.359375 C37.73783691 45.01389648 38.24911133 45.66841797 38.77587891 46.34277344 C40 48 40 48 41 50 C39.35 50 37.7 50 36 50 C35.77054688 49.30648437 35.54109375 48.61296875 35.3046875 47.8984375 C33.72164114 44.38160996 31.53800592 41.59449698 29.125 38.625 C28.6403125 38.017771 28.155625 37.41054199 27.65625 36.78491211 C26.11070578 34.85124805 24.55665682 32.92472615 23 31 C16.78050989 23.30493687 10.61200192 15.59820268 4.75 7.625 C4.27175781 6.9760376 3.79351563 6.3270752 3.30078125 5.65844727 C0 1.12783116 0 1.12783116 0 0 Z " fill="#03090E" transform="translate(580,156)"/>
<path d="M0 0 C9.9 0 19.8 0 30 0 C28.02 2.31 26.04 4.62 24 7 C22.57753685 8.74529167 21.16046314 10.49499625 19.75 12.25 C15.77755655 17.12527151 11.62011276 21.79040231 7.36328125 26.41796875 C4.68039903 29.34918387 2.067423 32.33458561 -0.52734375 35.34375 C-1.9634812 36.95892845 -3.45599777 38.48826051 -5 40 C-5.66 39.67 -6.32 39.34 -7 39 C-6.38253906 38.33355469 -5.76507812 37.66710937 -5.12890625 36.98046875 C0.01069162 31.38714687 4.92642006 25.69747811 9.69140625 19.77734375 C12.95802066 15.84745738 16.43211454 12.13082038 19.93359375 8.41015625 C22.24851663 5.90740856 22.24851663 5.90740856 24 2 C16.08 1.67 8.16 1.34 0 1 C0 0.67 0 0.34 0 0 Z " fill="#020609" transform="translate(588,114)"/>
<path d="M0 0 C2.24667022 2.80833777 3.78465562 5.53611379 5.25 8.8125 C10.08116515 18.54629725 18.0083005 24.13559158 28.1796875 27.78125 C35.24082029 29.59316332 42.75041919 29.63704338 50 30 C49.67 30.66 49.34 31.32 49 32 C35.08770005 32.63558731 23.11215214 31.33255235 12 22 C6.29411789 16.51787798 0.43315465 10.19785574 -0.25 2 C-0.1675 1.34 -0.085 0.68 0 0 Z " fill="#040A0E" transform="translate(426,176)"/>
<path d="M0 0 C4.42648718 3.16958342 6.27526456 5.79684853 7.58203125 11.1328125 C7.70703125 14.0078125 7.70703125 14.0078125 7.58203125 16.1328125 C6.92203125 16.1328125 6.26203125 16.1328125 5.58203125 16.1328125 C5.37707031 15.44574219 5.17210937 14.75867188 4.9609375 14.05078125 C4.69152344 13.14972656 4.42210937 12.24867188 4.14453125 11.3203125 C3.87769531 10.42699219 3.61085938 9.53367188 3.3359375 8.61328125 C2.49112102 4.75386564 2.49112102 4.75386564 -0.1328125 2.18359375 C-11.85188691 -1.70903378 -22.18525442 0.11879571 -33.24609375 5.51171875 C-35.34128296 6.668026 -37.39399049 7.85671251 -39.41796875 9.1328125 C-40.07796875 8.4728125 -40.73796875 7.8128125 -41.41796875 7.1328125 C-41.41796875 6.1428125 -41.41796875 5.1528125 -41.41796875 4.1328125 C-40.75796875 4.1328125 -40.09796875 4.1328125 -39.41796875 4.1328125 C-39.41796875 4.7928125 -39.41796875 5.4528125 -39.41796875 6.1328125 C-37.75507812 5.28396484 -37.75507812 5.28396484 -36.05859375 4.41796875 C-34.59515972 3.67687075 -33.13161208 2.93599706 -31.66796875 2.1953125 C-30.93835938 1.82212891 -30.20875 1.44894531 -29.45703125 1.06445312 C-28.74804688 0.70673828 -28.0390625 0.34902344 -27.30859375 -0.01953125 C-26.3345459 -0.5144104 -26.3345459 -0.5144104 -25.34082031 -1.01928711 C-17.54556604 -4.45668148 -7.3212388 -4.40815641 0 0 Z " fill="#020A11" transform="translate(677.41796875,133.8671875)"/>
<path d="M0 0 C1.00023193 0.00523682 2.00046387 0.01047363 3.03100586 0.01586914 C4.00303955 0.0183667 4.97507324 0.02086426 5.9765625 0.0234375 C7.84235962 0.03709351 7.84235962 0.03709351 9.74584961 0.05102539 C13.68522461 0.07165039 17.62459961 0.09227539 21.68334961 0.11352539 C21.68334961 12.65352539 21.68334961 25.19352539 21.68334961 38.11352539 C21.35334961 38.11352539 21.02334961 38.11352539 20.68334961 38.11352539 C20.35334961 26.23352539 20.02334961 14.35352539 19.68334961 2.11352539 C17.37334961 2.44352539 15.06334961 2.77352539 12.68334961 3.11352539 C10.37164154 3.17752617 8.05832057 3.1998653 5.74584961 3.17602539 C4.60245117 3.16700195 3.45905273 3.15797852 2.28100586 3.14868164 C1.4237793 3.13708008 0.56655273 3.12547852 -0.31665039 3.11352539 C-0.31665039 5.75352539 -0.31665039 8.39352539 -0.31665039 11.11352539 C-1.30665039 11.60852539 -1.30665039 11.60852539 -2.31665039 12.11352539 C-3.49326547 8.43660326 -3.46140972 4.94964759 -3.31665039 1.11352539 C-2.31665039 0.11352539 -2.31665039 0.11352539 0 0 Z " fill="#00060A" transform="translate(797.316650390625,112.886474609375)"/>
<path d="M0 0 C-3.30800968 1.83064613 -6.60867762 2.76632523 -10.25 3.75 C-17.18579985 5.85411906 -22.7032019 8.33827892 -26.63671875 14.609375 C-28.35075274 18.87235926 -28.79208365 22.82589815 -29.1875 27.375 C-29.26935547 28.20644531 -29.35121094 29.03789062 -29.43554688 29.89453125 C-29.63428563 31.92868087 -29.81861584 33.96422949 -30 36 C-33.07364632 31.38953052 -33.2642604 27.56561818 -32.4375 22.1875 C-30.76388367 14.7789584 -26.64965575 8.21297808 -20.19140625 4.06640625 C-13.90242066 1.0059908 -6.9453109 -1.98806297 0 0 Z " fill="#030A0F" transform="translate(656,152)"/>
<path d="M0 0 C0.66 0 1.32 0 2 0 C4.12254372 4.69853997 5.12445957 9.55821634 6.25 14.5625 C8.21084027 23.07950094 10.51872034 31.43471633 13.12011719 39.77758789 C15 45.8242149 15 45.8242149 15 48 C14.34 48 13.68 48 13 48 C9.54351475 38.22878207 6.56823864 28.32966613 3.6875 18.375 C3.32591797 17.14168945 2.96433594 15.90837891 2.59179688 14.63769531 C2.25599609 13.46561523 1.92019531 12.29353516 1.57421875 11.0859375 C1.11921997 9.5088501 1.11921997 9.5088501 0.6550293 7.89990234 C0.03422159 5.15150357 -0.13017109 2.80433097 0 0 Z " fill="#FD6D03" transform="translate(69,159)"/>
<path d="M0 0 C0.66 0 1.32 0 2 0 C1.2155134 9.41383916 -2.41048904 14.95870638 -9.390625 21.23828125 C-16.76201988 26.21507629 -23.36059008 26.39834918 -32 26.1875 C-33.06089844 26.17396484 -34.12179688 26.16042969 -35.21484375 26.14648438 C-37.81043687 26.11140879 -40.40494067 26.06225844 -43 26 C-43 25.67 -43 25.34 -43 25 C-42.42668945 25.00112793 -41.85337891 25.00225586 -41.26269531 25.00341797 C-24.64670249 25.09929942 -24.64670249 25.09929942 -10 18 C-8.65878145 16.33967221 -7.32393739 14.67414018 -6 13 C-5.34 13 -4.68 13 -4 13 C-3.566875 11.1746875 -3.566875 11.1746875 -3.125 9.3125 C-2.32164208 6.08185352 -1.33734591 3.05679065 0 0 Z " fill="#FC6D03" transform="translate(269,208)"/>
<path d="M0 0 C1.77149666 0.00022659 1.77149666 0.00022659 3.57878113 0.00045776 C5.49138481 0.01594162 5.49138481 0.01594162 7.44262695 0.03173828 C9.40060966 0.03598312 9.40060966 0.03598312 11.39814758 0.04031372 C14.86536335 0.04794331 18.33241108 0.06758585 21.79956055 0.08972168 C25.33876268 0.11019473 28.87799202 0.11931855 32.41723633 0.12939453 C39.35936257 0.15083248 46.30137731 0.18496022 53.2434082 0.22705078 C53.2434082 0.55705078 53.2434082 0.88705078 53.2434082 1.22705078 C44.0034082 1.22705078 34.7634082 1.22705078 25.2434082 1.22705078 C25.2434082 1.88705078 25.2434082 2.54705078 25.2434082 3.22705078 C13.88482504 3.41671172 2.58228416 2.83170507 -8.7565918 2.22705078 C-5.30973409 -0.07085435 -4.05540228 -0.01729383 0 0 Z " fill="#FE8311" transform="translate(146.756591796875,45.77294921875)"/>
<path d="M0 0 C0 0.66 0 1.32 0 2 C-15.18 2 -30.36 2 -46 2 C-46 1.34 -46 0.68 -46 0 C-41.62515941 -0.17102725 -37.25010879 -0.33598883 -32.875 -0.5 C-31.65683594 -0.54769531 -30.43867188 -0.59539063 -29.18359375 -0.64453125 C-5.002384 -1.54013161 -5.002384 -1.54013161 0 0 Z " fill="#FE6B00" transform="translate(218,47)"/>
<path d="M0 0 C0.99 0.33 1.98 0.66 3 1 C2.29875 1.82242188 1.5975 2.64484375 0.875 3.4921875 C-5.69910729 11.22054514 -12.10453328 19.05894155 -18.38671875 27.02734375 C-19.18722656 28.02894531 -19.98773437 29.03054687 -20.8125 30.0625 C-21.54082031 30.98160156 -22.26914062 31.90070313 -23.01953125 32.84765625 C-25 35 -25 35 -28 36 C-28.33 35.34 -28.66 34.68 -29 34 C-28.34 33.360625 -27.68 32.72125 -27 32.0625 C-17.13373788 22.16852366 -8.49745152 11.06581307 0 0 Z " fill="#02080C" transform="translate(584,116)"/>
<path d="M0 0 C-0.92941406 0.49628906 -1.85882813 0.99257812 -2.81640625 1.50390625 C-14.2739529 7.74207591 -21.59444658 13.701459 -27 26 C-27.67281369 28.7116255 -27.67281369 28.7116255 -28 31 C-28.66 31 -29.32 31 -30 31 C-29.61159439 20.51304858 -23.86232408 13.05761583 -16.44140625 5.98828125 C-11.76080503 2.17639962 -6.16728173 -2.22981811 0 0 Z " fill="#03090C" transform="translate(455,116)"/>
<path d="M0 0 C0 6.93 0 13.86 0 21 C-0.66 21.33 -1.32 21.66 -2 22 C-2 15.07 -2 8.14 -2 1 C-17.27160758 4.0108573 -17.27160758 4.0108573 -29 13 C-28.25456713 8.72986604 -26.44280829 7.10480887 -23.14453125 4.46484375 C-15.37648923 -0.84119588 -9.18203014 -1.41262002 0 0 Z " fill="#01070B" transform="translate(782,113)"/>
<path d="M0 0 C-2.5459446 2.5459446 -4.59974468 2.86074854 -8.0625 3.8125 C-13.89209701 5.52899245 -18.86994869 7.76554904 -24 11 C-23.48964169 15.3890815 -22.47785723 18.33708062 -20 22 C-20.66 22.66 -21.32 23.32 -22 24 C-22.83848804 22.54462432 -23.67063934 21.08559627 -24.5 19.625 C-24.9640625 18.81289062 -25.428125 18.00078125 -25.90625 17.1640625 C-27 15 -27 15 -27 13 C-27.99 13.33 -28.98 13.66 -30 14 C-30 13.34 -30 12.68 -30 12 C-22.17491299 4.98745025 -10.76176988 -1.25136859 0 0 Z " fill="#03090D" transform="translate(656,114)"/>
<path d="M0 0 C-0.75796875 0.47566406 -0.75796875 0.47566406 -1.53125 0.9609375 C-4.58897245 3.15715878 -6.68987015 4.72746719 -7.60546875 8.484375 C-7.73356313 12.60779406 -7.60251034 15.14817504 -5.1875 18.5625 C-1.64485315 20.89052508 1.54598308 21.2214339 5.6875 21.5625 C6.68136719 21.64628906 7.67523437 21.73007813 8.69921875 21.81640625 C9.83810547 21.90728516 9.83810547 21.90728516 11 22 C7.22486447 24.51675702 5.4906709 24.36808778 1 24 C-2.99787486 23.06104957 -6.07077572 21.92922428 -9 19 C-10.57177526 14.28467422 -11.02125128 9.89200788 -10 5 C-7.26827659 1.11731045 -4.73911112 -1.57970371 0 0 Z " fill="#030A0F" transform="translate(658,167)"/>
<path d="M0 0 C0.66 0 1.32 0 2 0 C3.19404546 3.58213639 3.168824 6.53621258 3.1875 10.3125 C3.20167969 11.60800781 3.21585937 12.90351562 3.23046875 14.23828125 C3.00819391 17.8662588 2.32059222 20.6332728 1 24 C-2.96 24 -6.92 24 -11 24 C-11 23.67 -11 23.34 -11 23 C-7.7 22.67 -4.4 22.34 -1 22 C-0.67 14.74 -0.34 7.48 0 0 Z " fill="#F56C08" transform="translate(304,109)"/>
<path d="M0 0 C8.59388863 0.45230993 15.91205971 6.25156749 21.58984375 12.33203125 C23.38448582 14.45477963 24.86798384 16.45296365 26 19 C25.67 19.99 25.34 20.98 25 22 C24.52691406 21.35933594 24.05382812 20.71867187 23.56640625 20.05859375 C16.91705874 11.36129906 9.95858646 5.52663021 0 1 C0 0.67 0 0.34 0 0 Z " fill="#04090D" transform="translate(485,115)"/>
<path d="M0 0 C0.33 0.99 0.66 1.98 1 3 C0.34 3 -0.32 3 -1 3 C-1.35771484 3.88171875 -1.35771484 3.88171875 -1.72265625 4.78125 C-5.60101871 11.51797746 -14.44648343 15.00299448 -21.50390625 17.35546875 C-24.40969106 18.10578877 -27.01304934 18.32291359 -30 18 C-29.67 17.34 -29.34 16.68 -29 16 C-27.04165798 15.35017309 -25.05648133 14.78048745 -23.0625 14.25 C-13.67248923 11.4700626 -6.56309105 7.25394273 0 0 Z " fill="#040A0E" transform="translate(506,190)"/>
<path d="M0 0 C0.556875 0.7425 1.11375 1.485 1.6875 2.25 C6.93521971 8.49053154 11.7824807 11.0095473 19.75 12.125 C20.92046875 12.29257813 22.0909375 12.46015625 23.296875 12.6328125 C24.63492187 12.81457031 24.63492187 12.81457031 26 13 C21.53855741 15.83909983 17.88081387 14.71035618 12.9140625 13.76171875 C7.06405661 12.23256171 3.26293193 9.01989528 0 4 C0 2.68 0 1.36 0 0 Z " fill="#03090D" transform="translate(450,175)"/>
<path d="M0 0 C1.24523437 0.02707031 2.49046875 0.05414063 3.7734375 0.08203125 C4.71445312 0.11683594 5.65546875 0.15164062 6.625 0.1875 C6.625 0.5175 6.625 0.8475 6.625 1.1875 C5.55121094 1.34605469 4.47742188 1.50460938 3.37109375 1.66796875 C-7.47906527 3.22021166 -7.47906527 3.22021166 -16.375 9.1875 C-18.32052789 12.32096478 -18.32052789 12.32096478 -19.375 15.1875 C-20.035 15.1875 -20.695 15.1875 -21.375 15.1875 C-20.77532681 11.70628032 -19.4970099 9.77099478 -17.1875 7.125 C-16.61644531 6.45339844 -16.04539062 5.78179687 -15.45703125 5.08984375 C-10.63799645 0.68671064 -6.41486428 -0.18155276 0 0 Z " fill="#03070B" transform="translate(772.375,135.8125)"/>
<path d="M0 0 C2.60450818 3.90676227 3.72689495 7.91979443 5.125 12.375 C5.40214844 13.22578125 5.67929688 14.0765625 5.96484375 14.953125 C6.35736328 16.19449219 6.35736328 16.19449219 6.7578125 17.4609375 C7.11576904 18.58701416 7.11576904 18.58701416 7.48095703 19.73583984 C8.0507158 22.22123157 8.08902743 24.45851886 8 27 C5.49893253 23.2483988 3.977727 19.36224745 2.3125 15.1875 C1.97927734 14.39279297 1.64605469 13.59808594 1.30273438 12.77929688 C-0.55208014 8.11719552 -1.45944081 5.00725272 0 0 Z " fill="#FD7004" transform="translate(243,72)"/>
<path d="M0 0 C0.79519043 0.00193359 1.59038086 0.00386719 2.40966797 0.00585938 C10.25407174 0.06179095 18.05545439 0.52841341 25.875 1.125 C25.875 1.455 25.875 1.785 25.875 2.125 C21.3913955 2.31772034 16.9075155 2.4963676 12.42285156 2.66210938 C10.8979599 2.72043502 9.37320906 2.78257438 7.84863281 2.84863281 C5.65455776 2.94303239 3.46033851 3.02361231 1.265625 3.1015625 C0.5863092 3.13375885 -0.09300659 3.1659552 -0.79290771 3.1991272 C-4.44873792 3.31428821 -7.02155637 3.14568663 -10.125 1.125 C-6.93691653 -0.46904174 -3.498648 -0.02027782 0 0 Z " fill="#FE6900" transform="translate(100.125,128.875)"/>
<path d="M0 0 C0.33 0 0.66 0 1 0 C1 6.6 1 13.2 1 20 C0.34 20 -0.32 20 -1 20 C-2.19028338 16.42914986 -2.18398398 13.1539317 -2.1875 9.4375 C-2.19974609 8.75236328 -2.21199219 8.06722656 -2.22460938 7.36132812 C-2.22987533 5.57265888 -2.12200021 3.78451152 -2 2 C-1.34 1.34 -0.68 0.68 0 0 Z " fill="#FB7309" transform="translate(49,111)"/>
<path d="M0 0 C2 1 2 1 3.2890625 4.421875 C3.74245545 5.86206436 4.18740868 7.30493101 4.625 8.75 C4.85445313 9.46671875 5.08390625 10.1834375 5.3203125 10.921875 C6.49226082 14.71675526 7.30065999 17.98065072 7 22 C6.34 22 5.68 22 5 22 C4.15820605 19.27318889 3.32636931 16.54398557 2.5 13.8125 C2.26152344 13.04357422 2.02304688 12.27464844 1.77734375 11.48242188 C0.59786383 7.55643872 -0.3326262 4.14951179 0 0 Z " fill="#FD6D03" transform="translate(62,135)"/>
<path d="M0 0 C1.95873047 0.02126953 1.95873047 0.02126953 3.95703125 0.04296875 C5.89642578 0.05263672 5.89642578 0.05263672 7.875 0.0625 C11.60058716 0.22318229 15.09576388 0.63485147 18.76953125 1.23046875 C18.76953125 1.89046875 18.76953125 2.55046875 18.76953125 3.23046875 C10.7274037 3.39724098 2.78349371 2.87712855 -5.23046875 2.23046875 C-3.23046875 0.23046875 -3.23046875 0.23046875 0 0 Z " fill="#060E12" transform="translate(663.23046875,111.76953125)"/>
<path d="M0 0 C1.10859375 0.05220703 2.2171875 0.10441406 3.359375 0.15820312 C6.07327203 0.28687928 8.78670458 0.42179406 11.5 0.5625 C11.5 0.8925 11.5 1.2225 11.5 1.5625 C1.13946908 2.39610594 -9.1094206 2.68538464 -19.5 2.5625 C-19.83 1.9025 -20.16 1.2425 -20.5 0.5625 C-13.58493121 -0.57042996 -6.98250905 -0.36332433 0 0 Z " fill="#FC6700" transform="translate(145.5,107.4375)"/>
<path d="M0 0 C0.89589844 0.00322266 1.79179688 0.00644531 2.71484375 0.00976562 C4.12056641 0.02233398 4.12056641 0.02233398 5.5546875 0.03515625 C6.49957031 0.03966797 7.44445312 0.04417969 8.41796875 0.04882812 C10.75527137 0.06063268 13.09244811 0.07709866 15.4296875 0.09765625 C15.7596875 0.75765625 16.0896875 1.41765625 16.4296875 2.09765625 C13.34741041 2.32421526 10.2639859 2.5256909 7.1796875 2.72265625 C6.30699219 2.78710938 5.43429687 2.8515625 4.53515625 2.91796875 C3.69082031 2.96953125 2.84648438 3.02109375 1.9765625 3.07421875 C1.20151367 3.12658691 0.42646484 3.17895508 -0.37207031 3.23291016 C-2.87835487 3.07870295 -4.41871123 2.35347133 -6.5703125 1.09765625 C-4.16971433 -0.10264283 -2.67670601 -0.01694118 0 0 Z " fill="#000409" transform="translate(667.5703125,163.90234375)"/>
<path d="M0 0 C0.82741699 0.01047363 1.65483398 0.02094727 2.50732422 0.03173828 C3.40322266 0.03818359 4.29912109 0.04462891 5.22216797 0.05126953 C6.62789062 0.07640625 6.62789062 0.07640625 8.06201172 0.10205078 C9.00689453 0.11107422 9.95177734 0.12009766 10.92529297 0.12939453 C13.26278464 0.15300556 15.59977295 0.18593562 17.93701172 0.22705078 C15.17578125 3.18603516 15.17578125 3.18603516 13.02685547 3.55517578 C12.31658203 3.52939453 11.60630859 3.50361328 10.87451172 3.47705078 C10.09076172 3.45126953 9.30701172 3.42548828 8.49951172 3.39892578 C4.29917681 3.117196 0.11808289 2.71586077 -4.06298828 2.22705078 C-2.06298828 0.22705078 -2.06298828 0.22705078 0 0 Z " fill="#000205" transform="translate(596.06298828125,203.77294921875)"/>
<path d="M0 0 C6.3111712 1.67060414 9.5429623 6.81444344 13 12 C13.125 15.1875 13.125 15.1875 13 18 C10.4345406 15.4345406 10.45953913 13.52313332 10 10 C9.34 10 8.68 10 8 10 C6.5625 8.50390625 6.5625 8.50390625 5 6.5625 C2.85474956 3.84811762 2.85474956 3.84811762 0 2 C0 1.34 0 0.68 0 0 Z " fill="#FD6F04" transform="translate(228,51)"/>
<path d="M0 0 C1.00023193 0.00523682 2.00046387 0.01047363 3.03100586 0.01586914 C4.1105957 0.0190918 5.19018555 0.02231445 6.30249023 0.02563477 C8.00695312 0.03820312 8.00695312 0.03820312 9.74584961 0.05102539 C11.45611328 0.05779297 11.45611328 0.05779297 13.20092773 0.06469727 C16.02845312 0.07652792 18.85587601 0.09301129 21.68334961 0.11352539 C21.68334961 0.44352539 21.68334961 0.77352539 21.68334961 1.11352539 C14.09334961 1.44352539 6.50334961 1.77352539 -1.31665039 2.11352539 C-1.64665039 4.09352539 -1.97665039 6.07352539 -2.31665039 8.11352539 C-2.64665039 8.11352539 -2.97665039 8.11352539 -3.31665039 8.11352539 C-3.35906762 5.78057764 -3.35757976 3.44649972 -3.31665039 1.11352539 C-2.31665039 0.11352539 -2.31665039 0.11352539 0 0 Z " fill="#0D1F25" transform="translate(797.316650390625,112.886474609375)"/>
<path d="M0 0 C-0.66 0 -1.32 0 -2 0 C-2 0.66 -2 1.32 -2 2 C-2.99 2 -3.98 2 -5 2 C-5 2.66 -5 3.32 -5 4 C-5.9075 4.4125 -6.815 4.825 -7.75 5.25 C-10.79665618 6.89050718 -12.71126806 8.44718361 -15 11 C-14.45550236 7.20527027 -12.96207612 5.72968732 -10.0625 3.3125 C-9.35222656 2.71050781 -8.64195313 2.10851563 -7.91015625 1.48828125 C-4.82096758 -0.91863262 -3.69580988 -1.10874296 0 0 Z " fill="#FC6E03" transform="translate(132,50)"/>
<path d="M0 0 C2.04824091 1.84341682 3.27423652 3.46721777 4.6875 5.875 C7.57165703 9.77250949 10.80223898 11.69734468 15 14 C13.2890625 14.73046875 13.2890625 14.73046875 11 15 C8.7109375 13.48828125 8.7109375 13.48828125 6.375 11.3125 C5.21097656 10.25482422 5.21097656 10.25482422 4.0234375 9.17578125 C1.17229496 6.1099774 0 4.20830843 0 0 Z " fill="#02060A" transform="translate(626,190)"/>
<path d="M0 0 C0.99 0.33 1.98 0.66 3 1 C2.4225 1.5775 1.845 2.155 1.25 2.75 C-1.53782678 6.7768609 -2.69216396 10.78336548 -4.0703125 15.453125 C-5 18 -5 18 -7 19 C-6.42697729 12.41023883 -4.79679264 4.79679264 0 0 Z " fill="#FD6E02" transform="translate(137,68)"/>
<path d="M0 0 C0.33 0 0.66 0 1 0 C2.93012353 6.97813891 3.52114552 13.06684982 1 20 C0.34 20.33 -0.32 20.66 -1 21 C-0.67 14.07 -0.34 7.14 0 0 Z " fill="#010408" transform="translate(515,150)"/>
<path d="M0 0 C0.33 0 0.66 0 1 0 C0.82316211 6.94490614 -0.88155424 11.42262143 -5 17 C-5.66 16.67 -6.32 16.34 -7 16 C-6.66226562 15.34773437 -6.32453125 14.69546875 -5.9765625 14.0234375 C-3.6285312 9.42238194 -1.4422387 4.98227915 0 0 Z " fill="#02080B" transform="translate(514,172)"/>
<path d="M0 0 C0.75732422 0.00966797 1.51464844 0.01933594 2.29492188 0.02929688 C3.08060547 0.05443359 3.86628906 0.07957031 4.67578125 0.10546875 C5.87170898 0.12577148 5.87170898 0.12577148 7.09179688 0.14648438 C9.05758092 0.18179786 11.02301707 0.23560428 12.98828125 0.29296875 C12.98828125 0.62296875 12.98828125 0.95296875 12.98828125 1.29296875 C6.37018548 3.75551601 -0.01611391 3.48232347 -7.01171875 3.29296875 C-4.74810376 0.60821609 -3.50571314 -0.07907624 0 0 Z " fill="#0B0F16" transform="translate(541.01171875,76.70703125)"/>
<path d="M0 0 C0.66 0 1.32 0 2 0 C1.27683681 4.37704038 -0.82212757 6.07826139 -4.14453125 8.8046875 C-6.52943543 10.34106788 -8.22522966 10.5045037 -11 10 C-10 8 -10 8 -7.1875 6.6875 C-3.76591997 4.87607528 -2.30273709 3.04290259 0 0 Z " fill="#040A10" transform="translate(681,179)"/>
<path d="M0 0 C1.74796875 -0.02126953 1.74796875 -0.02126953 3.53125 -0.04296875 C6.5 0.1875 6.5 0.1875 8.5 2.1875 C6.23044814 2.40935844 3.95926245 2.61455515 1.6875 2.8125 C-0.20935547 2.98652344 -0.20935547 2.98652344 -2.14453125 3.1640625 C-5.5 3.1875 -5.5 3.1875 -8.5 1.1875 C-5.65161879 -0.2366906 -3.17212092 0.01754492 0 0 Z " fill="#000207" transform="translate(664.5,130.8125)"/>
<path d="M0 0 C0.33 0 0.66 0 1 0 C1.33895656 1.72807318 1.67091525 3.45751974 2 5.1875 C2.185625 6.15042969 2.37125 7.11335937 2.5625 8.10546875 C2.96877612 10.7934206 3.07933572 13.28771019 3 16 C1 15 1 15 -1 13 C-1.36827609 8.4333765 -1.11436226 4.45744906 0 0 Z " fill="#020608" transform="translate(423,158)"/>
<path d="M0 0 C-0.98562757 3.31529273 -1.65447419 4.74949379 -4.5 6.8125 C-7 8 -7 8 -9 8 C-7.70948419 4.12845257 -4.40863591 0 0 0 Z " fill="#04080F" transform="translate(489,179)"/>
<path d="M0 0 C0.33 0 0.66 0 1 0 C1 3.63 1 7.26 1 11 C0.01 11.495 0.01 11.495 -1 12 C-2.11658501 7.31034294 -1.80619523 4.46236469 0 0 Z " fill="#00080F" transform="translate(684,166)"/>
<path d="M0 0 C0.33 0 0.66 0 1 0 C1 3.96 1 7.92 1 12 C-1.15546298 8.76680553 -1.68074747 6.83103042 -2 3 C-1.34 2.01 -0.68 1.02 0 0 Z " fill="#020306" transform="translate(625,176)"/>
<path d="M0 0 C0.66 0 1.32 0 2 0 C2.99 2.64 3.98 5.28 5 8 C4.34 8.66 3.68 9.32 3 10 C2.01 6.7 1.02 3.4 0 0 Z " fill="#01080B" transform="translate(511,138)"/>
<path d="M0 0 C-1.38877354 3.35620271 -2.91677965 5.07298728 -6 7 C-6.66 7 -7.32 7 -8 7 C-8 6.34 -8 5.68 -8 5 C-2.52380952 0 -2.52380952 0 0 0 Z " fill="#050C10" transform="translate(682,197)"/>
<path d="M0 0 C0.33 0 0.66 0 1 0 C1.33 2.64 1.66 5.28 2 8 C1.01 7.67 0.02 7.34 -1 7 C-1.04254356 5.00045254 -1.04080783 2.99958364 -1 1 C-0.67 0.67 -0.34 0.34 0 0 Z " fill="#000D0E" transform="translate(818,197)"/>
<path d="M0 0 C3 1 3 1 3 1 Z " fill="#000000" transform="translate(779,110)"/>
<path d="M0 0 C3 1 3 1 3 1 Z " fill="#000000" transform="translate(379,78)"/>
<path d="M0 0 C2 1 2 1 2 1 Z " fill="#000000" transform="translate(469,210)"/>
<path d="" fill="#3F0000" transform="translate(0,0)"/>
<path d="" fill="#3F0000" transform="translate(0,0)"/>
<path d="" fill="#000000" transform="translate(0,0)"/>
<path d="" fill="#000000" transform="translate(0,0)"/>
<path d="" fill="#FFFF00" transform="translate(0,0)"/>
<path d="" fill="#FFFF00" transform="translate(0,0)"/>
<path d="" fill="#000000" transform="translate(0,0)"/>
<path d="" fill="#55552A" transform="translate(0,0)"/>
<path d="" fill="#000000" transform="translate(0,0)"/>
<path d="M0 0 C2 1 2 1 2 1 Z " fill="#000000" transform="translate(443,117)"/>
<path d="" fill="#000000" transform="translate(0,0)"/>
<path d="M0 0 C2 1 2 1 2 1 Z " fill="#000000" transform="translate(728,111)"/>
<path d="M0 0 C2 1 2 1 2 1 Z " fill="#000000" transform="translate(458,111)"/>
<path d="" fill="#FFBF00" transform="translate(0,0)"/>
<path d="M0 0 C2 1 2 1 2 1 Z " fill="#3F3F00" transform="translate(336,104)"/>
<path d="" fill="#FFFF00" transform="translate(0,0)"/>
<path d="" fill="#FFFF00" transform="translate(0,0)"/>
<path d="" fill="#FFFF00" transform="translate(0,0)"/>
<path d="" fill="#FFFF00" transform="translate(0,0)"/>
<path d="" fill="#000000" transform="translate(0,0)"/>
<path d="" fill="#000000" transform="translate(0,0)"/>
<path d="" fill="#000000" transform="translate(0,0)"/>
<path d="" fill="#000000" transform="translate(0,0)"/>
<path d="" fill="#000000" transform="translate(0,0)"/>
<path d="" fill="#000055" transform="translate(0,0)"/>
<path d="" fill="#000000" transform="translate(0,0)"/>
<path d="" fill="#000000" transform="translate(0,0)"/>
<path d="" fill="#FFFF00" transform="translate(0,0)"/>
<path d="" fill="#000000" transform="translate(0,0)"/>
<path d="" fill="#FF7F00" transform="translate(0,0)"/>
<path d="" fill="#000000" transform="translate(0,0)"/>
<path d="" fill="#000000" transform="translate(0,0)"/>
<path d="" fill="#000000" transform="translate(0,0)"/>
<path d="" fill="#000000" transform="translate(0,0)"/>
<path d="" fill="#FFFF00" transform="translate(0,0)"/>
<path d="" fill="#000000" transform="translate(0,0)"/>
<path d="" fill="#000000" transform="translate(0,0)"/>
<path d="" fill="#FFFF00" transform="translate(0,0)"/>
<path d="" fill="#000000" transform="translate(0,0)"/>
<path d="" fill="#000000" transform="translate(0,0)"/>
<path d="" fill="#000000" transform="translate(0,0)"/>
<path d="" fill="#FFFF00" transform="translate(0,0)"/>
<path d="" fill="#000000" transform="translate(0,0)"/>
<path d="" fill="#000000" transform="translate(0,0)"/>
<path d="" fill="#FFFF00" transform="translate(0,0)"/>
<path d="" fill="#000000" transform="translate(0,0)"/>
<path d="" fill="#000000" transform="translate(0,0)"/>
<path d="" fill="#000000" transform="translate(0,0)"/>
<path d="" fill="#000000" transform="translate(0,0)"/>
<path d="" fill="#000000" transform="translate(0,0)"/>
<path d="" fill="#000055" transform="translate(0,0)"/>
<path d="" fill="#000000" transform="translate(0,0)"/>
<path d="" fill="#000000" transform="translate(0,0)"/>
<path d="" fill="#002A2A" transform="translate(0,0)"/>
<path d="" fill="#000000" transform="translate(0,0)"/>
<path d="" fill="#FF7F00" transform="translate(0,0)"/>
<path d="" fill="#000000" transform="translate(0,0)"/>
<path d="" fill="#FFFF00" transform="translate(0,0)"/>
<path d="" fill="#000000" transform="translate(0,0)"/>
<path d="" fill="#000000" transform="translate(0,0)"/>
<path d="" fill="#000000" transform="translate(0,0)"/>
<path d="" fill="#000000" transform="translate(0,0)"/>
<path d="" fill="#000000" transform="translate(0,0)"/>
<path d="" fill="#003333" transform="translate(0,0)"/>
<path d="" fill="#000000" transform="translate(0,0)"/>
<path d="" fill="#000000" transform="translate(0,0)"/>
<path d="" fill="#000000" transform="translate(0,0)"/>
<path d="" fill="#000055" transform="translate(0,0)"/>
<path d="" fill="#000000" transform="translate(0,0)"/>
<path d="" fill="#000000" transform="translate(0,0)"/>
<path d="" fill="#000000" transform="translate(0,0)"/>
<path d="" fill="#000000" transform="translate(0,0)"/>
<path d="" fill="#000000" transform="translate(0,0)"/>
<path d="" fill="#000000" transform="translate(0,0)"/>
<path d="" fill="#000000" transform="translate(0,0)"/>
<path d="" fill="#000000" transform="translate(0,0)"/>
<path d="" fill="#000000" transform="translate(0,0)"/>
<path d="" fill="#FFAA00" transform="translate(0,0)"/>
<path d="" fill="#FFFF00" transform="translate(0,0)"/>
<path d="" fill="#000000" transform="translate(0,0)"/>
<path d="" fill="#000000" transform="translate(0,0)"/>
<path d="" fill="#000000" transform="translate(0,0)"/>
<path d="" fill="#000000" transform="translate(0,0)"/>
<path d="" fill="#000000" transform="translate(0,0)"/>
<path d="" fill="#000000" transform="translate(0,0)"/>
<path d="" fill="#000000" transform="translate(0,0)"/>
<path d="" fill="#000000" transform="translate(0,0)"/>
<path d="" fill="#000000" transform="translate(0,0)"/>
<path d="" fill="#000000" transform="translate(0,0)"/>
<path d="" fill="#000000" transform="translate(0,0)"/>
<path d="" fill="#7F7F00" transform="translate(0,0)"/>
<path d="" fill="#FFFF00" transform="translate(0,0)"/>
</svg>
