<?xml version="1.0" encoding="UTF-8"?>
<svg version="1.1" xmlns="http://www.w3.org/2000/svg" width="1024" height="1024">
<path d="M0 0 C1.28743249 -0.00445668 1.28743249 -0.00445668 2.60087371 -0.0090034 C5.46453699 -0.01764484 8.32815823 -0.01919482 11.1918335 -0.02069092 C13.25068246 -0.02532255 15.30953057 -0.03034767 17.36837769 -0.03573608 C22.95583725 -0.04883429 28.54328482 -0.05530074 34.13075733 -0.05974674 C37.62871523 -0.06268341 41.1266699 -0.06678947 44.62462616 -0.07125092 C55.58901651 -0.08492296 66.55339942 -0.0945894 77.51779771 -0.09845281 C90.13567783 -0.10292415 102.75344912 -0.12043034 115.37129617 -0.1494534 C125.14745178 -0.17115175 134.92357697 -0.18116152 144.69975638 -0.18249393 C150.52697423 -0.18353671 156.35408975 -0.18933076 162.18128204 -0.20731354 C167.67411969 -0.22393428 173.16677963 -0.22588259 178.65963364 -0.21717453 C180.66091008 -0.21641142 182.66219664 -0.22064931 184.66344833 -0.23063278 C216.88218589 -0.38175602 242.11242877 7.13917677 265.73382568 29.50372314 C276.29736474 40.39680069 282.19331176 54.22125448 286.42523193 68.57794189 C286.9013008 70.13953229 287.37900464 71.70062491 287.85809326 73.2612915 C289.31451163 78.02768166 290.74339828 82.8020499 292.17034912 87.57733154 C293.368115 91.57568334 294.57342445 95.57171136 295.78070068 99.56719971 C296.00584193 100.31233668 296.23098318 101.05747366 296.46294689 101.82519054 C296.93044864 103.37230068 297.39797679 104.91940284 297.86553001 106.46649742 C300.99654874 116.82779088 304.12374114 127.19020152 307.23260498 137.5581665 C311.55641903 151.97452484 315.90031967 166.38375653 320.35101318 180.76153564 C320.73025436 181.98961441 321.10949554 183.21769318 321.50022888 184.48298645 C321.84713272 185.59898727 322.19403656 186.7149881 322.55145264 187.86480713 C322.85444778 188.84054184 323.15744293 189.81627655 323.46961975 190.82157898 C324.17284473 193.13006974 324.17284473 193.13006974 325.23773193 195.14044189 C328.7107159 196.10514645 331.99981921 196.25857042 335.58880615 196.23809814 C336.64865219 196.23486038 337.70849823 196.23162262 338.80046082 196.22828674 C339.95280716 196.21992294 341.1051535 196.21155914 342.29241943 196.20294189 C344.82358736 196.19387462 347.35475602 196.18501381 349.88592529 196.17633057 C351.23975672 196.1701105 352.59358769 196.16379175 353.94741821 196.15737915 C361.04284904 196.12595672 368.13833799 196.12800322 375.23382568 196.12872314 C375.9663537 196.12878168 376.69888172 196.12884022 377.45360756 196.12890053 C382.71498646 196.12981226 387.97635695 196.13407835 393.23773193 196.14044189 C393.98382973 196.14126518 394.72992752 196.14208847 395.49863434 196.14293671 C404.30511885 196.15392148 413.11095172 196.18621005 421.91704941 196.27253532 C425.3784239 196.30629553 428.83935518 196.33188519 432.30090332 196.33599854 C436.16438692 196.34101907 440.0268749 196.38542603 443.89007568 196.43341064 C445.02695328 196.429478 446.16383087 196.42554535 447.3351593 196.42149353 C454.09074441 196.54672953 459.26899522 197.26950977 464.23773193 202.14044189 C468.60026914 207.75568696 468.81771178 213.64155314 468.73382568 220.51934814 C468.73528091 221.49024887 468.73673615 222.4611496 468.73823547 223.46147156 C468.73658385 225.50284849 468.72510573 227.54423884 468.70428467 229.58551025 C468.67528301 232.69746109 468.68370143 235.80771019 468.69671631 238.91973877 C468.69047918 240.91128345 468.68208845 242.90282278 468.67132568 244.89434814 C468.67426132 245.81744278 468.67719696 246.74053741 468.68022156 247.69160461 C468.57978829 254.61655634 467.33861374 259.27016694 463.17913818 264.95294189 C458.43219993 268.48320142 453.19985452 268.71486686 447.45452881 269.52325439 C446.58763428 269.66505127 445.72073975 269.80684814 444.82757568 269.95294189 C444.04245605 270.06251221 443.25733643 270.17208252 442.44842529 270.28497314 C439.1605159 271.55729059 438.12401069 273.15970319 436.23773193 276.14044189 C434.94293014 279.28731629 433.96616695 282.5059922 432.99554443 285.76544189 C432.55010788 287.21309937 432.55010788 287.21309937 432.09567261 288.69000244 C431.131247 291.83669603 430.18368306 294.98814991 429.23773193 298.14044189 C428.60116201 300.23824214 427.96411514 302.33589772 427.32659912 304.43341064 C425.2369708 311.33029135 423.17463977 318.23523374 421.11273193 325.14044189 C420.33476507 327.7413208 419.55616934 330.34201128 418.77752686 332.94268799 C417.5467859 337.05383675 416.31623649 341.16504242 415.08659363 345.27651978 C412.03649556 355.4748474 408.98065076 365.67144107 405.92132568 375.86700439 C405.58933387 376.97343166 405.58933387 376.97343166 405.25063515 378.102211 C404.13169818 381.83120576 403.01267166 385.56017363 401.89358521 389.28912354 C399.66941228 396.70039642 397.4456957 404.11180622 395.22210693 411.52325439 C395.00736914 412.23897362 394.79263134 412.95469284 394.57138634 413.69210052 C391.40930736 424.23151009 388.25072005 434.77196068 385.09495544 445.31326294 C382.69472438 453.32893625 380.28520186 461.34179139 377.87294006 469.35385132 C376.03395553 475.46924897 374.21470793 481.59022798 372.40605164 487.71466064 C371.15731355 491.93527428 369.89815566 496.15273767 368.63711548 500.36968994 C368.04956652 502.34308567 367.46646277 504.31781185 366.88839722 506.29400635 C362.2822093 522.03077513 357.1939984 535.60285861 346.23773193 548.14044189 C345.50103271 549.07436768 345.50103271 549.07436768 344.74945068 550.02716064 C330.94902378 567.32628733 308.62141969 576.83785115 287.23773193 580.14044189 C271.18345671 581.7885334 254.92869271 581.28395288 238.80991268 581.27116656 C234.54539776 581.26888371 230.28088679 581.27240628 226.01637268 581.27514648 C217.68436435 581.27957229 209.35236507 581.27864203 201.0203564 581.27573384 C194.24457426 581.27346753 187.46879465 581.27317259 180.69301224 581.27425766 C179.2417358 581.27448751 179.2417358 581.27448751 177.76114065 581.274722 C175.7951457 581.27504175 173.82915075 581.27536597 171.8631558 581.27569459 C153.4674304 581.27853996 135.07170999 581.27527702 116.67598541 581.26989423 C100.91694269 581.26542563 85.15790734 581.26620442 69.39886475 581.27081299 C51.06198557 581.27617297 32.72511077 581.27826685 14.38823092 581.27520072 C12.43042731 581.2748822 10.47262371 581.27456783 8.5148201 581.27425766 C7.55174287 581.27410338 6.58866564 581.27394911 5.59640425 581.27379016 C-1.16645082 581.27292938 -7.92930311 581.27437837 -14.69215775 581.27673721 C-22.94046485 581.27955118 -31.18876245 581.27876332 -39.43706848 581.27345647 C-43.63945318 581.27084117 -47.84182206 581.26977734 -52.04420662 581.27310562 C-55.9006056 581.27611355 -59.7569743 581.27440195 -63.61337058 581.26912807 C-65.64842737 581.2675046 -67.6834863 581.27072107 -69.71854079 581.2741853 C-91.77895786 581.22786847 -111.80277926 578.71639292 -131.02008057 566.96075439 C-131.59500244 566.69005127 -132.16992432 566.41934814 -132.76226807 566.14044189 C-133.42226807 566.47044189 -134.08226807 566.80044189 -134.76226807 567.14044189 C-134.99558838 566.55907471 -135.22890869 565.97770752 -135.46929932 565.37872314 C-137.06897246 562.60950045 -138.89811122 561.24656902 -141.44976807 559.32794189 C-159.72320747 545.03381881 -168.486596 525.9670609 -174.76226807 504.14044189 C-175.24908818 502.48203426 -175.73693432 500.82392757 -176.22564697 499.16607666 C-177.71894463 494.08521407 -179.19446237 488.99929923 -180.66815186 483.91271973 C-181.88628919 479.71284369 -183.10842403 475.51414445 -184.331604 471.31573486 C-184.67256371 470.14539231 -184.67256371 470.14539231 -185.02041149 468.95140648 C-185.49271239 467.33030322 -185.9650265 465.70920382 -186.43735313 464.08810806 C-189.6969594 452.89989172 -192.95389215 441.71090221 -196.2053833 430.52032471 C-201.86095398 411.05925693 -207.55677692 391.61204416 -213.38214111 372.20098877 C-216.85208569 360.62427864 -220.26100143 349.03060957 -223.64107704 337.4274025 C-224.39421283 334.84263872 -225.14808394 332.25809057 -225.90220642 329.6736145 C-226.40756522 327.94152918 -226.91292104 326.209443 -227.41827393 324.47735596 C-227.66934749 323.6168696 -227.92042105 322.75638325 -228.1791029 321.86982155 C-229.6800963 316.72350302 -231.17583424 311.57569149 -232.66791916 306.42678356 C-233.60235793 303.20659247 -234.54152936 299.98779511 -235.481884 296.76932716 C-235.92224411 295.25831184 -236.36057242 293.74670271 -236.79674149 292.23447227 C-237.40064439 290.14156789 -238.01165833 288.05086214 -238.62432861 285.96051025 C-238.96626755 284.78322861 -239.30820648 283.60594696 -239.6605072 282.39299011 C-241.77147921 275.92202989 -241.77147921 275.92202989 -246.51226807 271.39044189 C-251.4728958 269.55277894 -256.90832733 269.32907326 -262.14117432 268.86309814 C-267.40243404 267.81311643 -271.2401189 265.13327326 -274.76226807 261.14044189 C-277.37374652 253.18413754 -277.06674841 244.96989236 -277.02301025 236.68487549 C-277.01232329 234.27787906 -277.02293126 231.87163391 -277.03570557 229.46466064 C-277.05518662 209.07115941 -277.05518662 209.07115941 -273.01226807 202.14044189 C-267.83943609 197.54236903 -262.88946463 196.68250913 -256.15679932 196.62872314 C-255.28038788 196.61081726 -254.40397644 196.59291138 -253.50100708 196.57446289 C-250.52564304 196.51893839 -247.55046338 196.48576023 -244.57476807 196.45294189 C-242.4423529 196.41828784 -240.30994749 196.3830298 -238.17755127 196.347229 C-223.17195202 196.12325284 -208.16751461 196.12914415 -193.16070557 196.15606689 C-191.27381899 196.15890034 -189.38693239 196.16172321 -187.50004578 196.16453552 C-178.9853796 196.17871165 -170.4709385 196.20004219 -161.95639801 196.24977684 C-158.37111221 196.26909734 -154.78582703 196.28060426 -151.2005043 196.29056549 C-149.51347152 196.29719896 -147.82644869 196.30745745 -146.13946152 196.32152557 C-143.81143579 196.34068376 -141.4836725 196.34753647 -139.15557861 196.35162354 C-137.84300583 196.35908096 -136.53043304 196.36653839 -135.17808533 196.3742218 C-131.85940616 196.14709006 -129.66097529 195.74918315 -126.76226807 194.14044189 C-125.44384257 191.4185176 -124.59862948 189.02734548 -123.76226807 186.14044189 C-123.43465485 185.05583679 -123.10704163 183.97123169 -122.76950073 182.85375977 C-121.55928428 178.78741923 -120.38662819 174.71142563 -119.21929932 170.63262939 C-118.77416182 169.08633437 -118.32869921 167.5401329 -117.88293457 165.99401855 C-116.93591563 162.7078364 -115.990591 159.42117352 -115.04647827 156.13415527 C-113.56761861 150.98742292 -112.08173682 145.84273572 -110.59405518 140.69854736 C-110.34648248 139.84240656 -110.09890978 138.98626575 -109.84383488 138.10418129 C-109.34320617 136.37304958 -108.84255164 134.64192533 -108.34187126 132.91080856 C-107.09410441 128.59622992 -105.84700771 124.28145773 -104.60015869 119.96661377 C-104.35882926 119.13151464 -104.11749983 118.29641552 -103.86885738 117.43601036 C-102.33462531 112.1255321 -100.80429156 106.8139432 -99.27593994 101.50177002 C-97.46864539 95.22099075 -95.6471718 88.94445108 -93.81533813 82.67077637 C-93.16299387 80.42817842 -92.51542778 78.18418417 -91.87301636 75.9387207 C-83.86752755 47.97555069 -71.62764385 26.03725018 -45.61236572 11.13360596 C-31.59103315 3.60671484 -15.85725357 -0.0173588 0 0 Z M-22.53375244 68.98687744 C-28.76724144 77.24327139 -31.12463864 86.59948295 -33.94976807 96.39044189 C-34.52812123 98.34757078 -35.10766842 100.30434714 -35.68829346 102.26080322 C-37.3525841 107.89516968 -38.98724407 113.53781294 -40.61700439 119.18225098 C-41.86171814 123.48934787 -43.11764126 127.79315509 -44.37359619 132.09698486 C-46.93339754 140.87243473 -49.47526986 149.65298572 -52.00891495 158.4360199 C-52.70054608 160.8306356 -53.39455812 163.22455097 -54.08901978 165.61834717 C-55.18940558 169.41438699 -56.28059638 173.21295748 -57.36487579 177.01362801 C-57.77037299 178.43002457 -58.17880825 179.84558357 -58.59029388 181.260252 C-59.15557576 183.20587211 -59.7091129 185.15489316 -60.26202393 187.10406494 C-60.57731552 188.20220016 -60.89260712 189.30033539 -61.217453 190.43174744 C-62.01181435 193.22028063 -62.01181435 193.22028063 -60.76226807 196.14044189 C-56.85044885 196.86668668 -53.15209698 197.2655968 -49.17535877 197.26628304 C-47.53521044 197.27019466 -47.53521044 197.27019466 -45.86192781 197.2741853 C-44.6713663 197.27195458 -43.48080478 197.26972386 -42.25416565 197.26742554 C-40.98117101 197.26898553 -39.70817638 197.27054552 -38.39660615 197.27215278 C-34.87005566 197.27632391 -31.34353226 197.27426543 -27.81698167 197.27116656 C-24.01126636 197.26890374 -20.2055557 197.27239643 -16.39984131 197.27514648 C-8.94799988 197.27959331 -1.49616852 197.27863265 5.9556733 197.27573384 C12.01004436 197.27347606 18.06441259 197.27316892 24.11878395 197.27425766 C25.41097131 197.27448751 25.41097131 197.27448751 26.72926346 197.274722 C28.47922406 197.27504172 30.22918466 197.27536594 31.97914527 197.27569459 C48.38772243 197.27854607 64.79629401 197.2752673 81.20487026 197.26989423 C95.29240572 197.2654241 109.37993295 197.26620448 123.46746826 197.27081299 C139.82172669 197.2761605 156.17598022 197.27827392 172.5302394 197.27520072 C174.27286867 197.27488217 176.01549794 197.2745678 177.75812721 197.27425766 C178.61557344 197.27410338 179.47301967 197.27394911 180.35644912 197.27379016 C186.40696772 197.27292571 192.45748321 197.27438628 198.50800133 197.27673721 C205.87637553 197.27953726 213.24473908 197.2787925 220.61311205 197.27345647 C224.3744513 197.27082261 228.13577276 197.26980913 231.89711189 197.27310562 C235.96828367 197.2766198 240.03941025 197.27243296 244.11058044 197.26742554 C245.30783412 197.26965626 246.5050878 197.27188698 247.73862189 197.2741853 C248.82423087 197.27157755 249.90983984 197.26896981 251.02834606 197.26628304 C251.96869865 197.26612068 252.90905123 197.26595833 253.87789935 197.26579106 C256.39038794 197.23703519 256.39038794 197.23703519 259.23773193 196.14044189 C258.73755913 187.48360485 256.09922534 179.59397697 253.48773193 171.39044189 C252.40262381 167.94519515 251.32368153 164.49803197 250.24554443 161.05059814 C249.94457855 160.09051346 249.64361267 159.13042877 249.33352661 158.14125061 C246.7129693 149.74691444 244.18654775 141.32593316 241.67382812 132.89888382 C240.27810369 128.22269596 238.87480834 123.54877205 237.47212982 118.87466621 C236.30202643 114.97287631 235.13693399 111.0697211 233.98248291 107.16326904 C232.8771202 103.42365341 231.75852112 99.68823177 230.63077164 95.95530891 C230.21418517 94.5678519 229.8023399 93.17896058 229.39574814 91.78854179 C226.1834863 80.81741353 222.39531878 69.50639515 212.23773193 63.14044189 C204.31951684 59.22539437 196.99581872 57.98959636 188.19400024 58 C187.40104777 57.99702888 186.6080953 57.99405776 185.79111397 57.9909966 C183.14293806 57.98234834 180.49480755 57.98080463 177.84661865 57.97930908 C175.94404505 57.97467812 174.04147237 57.96965308 172.13890076 57.96426392 C166.97539221 57.95116359 161.81189665 57.94469942 156.64837408 57.94025326 C153.41899409 57.93731833 150.18961762 57.93321269 146.96023941 57.92874908 C136.8464201 57.91507954 126.73260887 57.90541058 116.61878097 57.90154719 C104.96242556 57.89706956 93.3061876 57.87953302 81.64986789 57.8505466 C72.62797555 57.82889389 63.60611616 57.81884097 54.58419812 57.81750607 C49.20152143 57.8164605 43.81895522 57.8106055 38.436306 57.79268646 C33.36866066 57.77614398 28.30120811 57.77408017 23.2335453 57.78282547 C21.38090942 57.78359258 19.5282629 57.77929648 17.67565346 57.76936722 C3.36063477 57.69718761 -11.89495561 57.89795511 -22.53375244 68.98687744 Z M-169.76226807 270.14044189 C-169.34111776 278.07996327 -167.17158683 285.34545534 -164.90289307 292.93341064 C-164.51248787 294.25131507 -164.12233543 295.56929439 -163.73242188 296.88734436 C-162.91742329 299.63474772 -162.09620206 302.38020064 -161.27105713 305.12457275 C-160.21907483 308.62686677 -159.18786877 312.13490662 -158.16183853 315.64487743 C-157.36378763 318.36324628 -156.55227428 321.07745953 -155.73699188 323.79070473 C-155.16491027 325.70568439 -154.60605118 327.62459831 -154.04748535 329.54356384 C-150.90284094 339.99316003 -150.90284094 339.99316003 -142.74691772 346.76506042 C-138.0207679 348.69192948 -133.38349774 348.5455011 -128.3447876 348.49688721 C-127.3212468 348.49893158 -126.29770599 348.50097595 -125.2431488 348.50308228 C-121.8769414 348.50607845 -118.51122933 348.48765344 -115.14508057 348.46856689 C-112.80335613 348.46550822 -110.46162988 348.46363292 -108.11990356 348.46289062 C-103.22262567 348.4582955 -98.32551294 348.44389498 -93.42828369 348.42169189 C-87.13637001 348.39331638 -80.84458581 348.38247019 -74.55261421 348.3780098 C-69.72295832 348.37386451 -64.89332883 348.36405605 -60.06368637 348.3521347 C-57.7423308 348.34642131 -55.42097268 348.34166616 -53.09961319 348.33786774 C-49.86748984 348.33103228 -46.63547149 348.31741537 -43.40338135 348.30157471 C-41.95252892 348.29989792 -41.95252892 348.29989792 -40.47236633 348.29818726 C-39.59762161 348.29247711 -38.72287689 348.28676697 -37.82162476 348.28088379 C-37.05733217 348.27790913 -36.29303959 348.27493446 -35.50558662 348.27186966 C-33.73326786 348.32875781 -33.73326786 348.32875781 -32.76226807 347.14044189 C-32.08188886 338.520627 -33.34227923 329.9219665 -34.44195557 321.39044189 C-34.6168936 320.00092103 -34.79145735 318.611353 -34.96566772 317.22174072 C-35.32938672 314.33353197 -35.69809336 311.44601622 -36.07037354 308.55889893 C-36.5467958 304.8603253 -37.00965645 301.16019624 -37.46879387 297.45944214 C-37.82515272 294.60029416 -38.18898322 291.74213511 -38.55505753 288.88421631 C-38.72889138 287.51937181 -38.90030783 286.15421712 -39.06924057 284.78875732 C-39.30543982 282.8880898 -39.55288102 280.9888295 -39.80084229 279.08966064 C-39.9385202 278.0103125 -40.07619812 276.93096436 -40.2180481 275.81890869 C-40.62923717 272.93057559 -40.62923717 272.93057559 -42.76226807 270.14044189 C-45.76891244 269.00902504 -48.68022208 269.01480166 -51.8681488 269.01345825 C-52.8987291 269.01063843 -53.92930939 269.0078186 -54.99111938 269.00491333 C-56.67837631 269.00794968 -56.67837631 269.00794968 -58.39971924 269.01104736 C-59.58863266 269.00929504 -60.77754608 269.00754272 -62.00248718 269.0057373 C-65.25842573 269.00209133 -68.51432359 269.00294407 -71.77026153 269.00611639 C-75.17574508 269.00864837 -78.58122593 269.00630027 -81.98670959 269.00473022 C-87.70218392 269.00291173 -93.41764531 269.00530725 -99.13311768 269.0100708 C-105.74855335 269.01552062 -112.36395825 269.01374427 -118.97939318 269.0082444 C-124.65587827 269.00371347 -130.33235407 269.00306238 -136.00884038 269.00568306 C-139.40086422 269.00724495 -142.79287356 269.00744185 -146.18489647 269.00414658 C-149.9609527 269.00162224 -153.73694877 269.00545719 -157.51300049 269.01104736 C-158.64391113 269.00902313 -159.77482178 269.0069989 -160.94000244 269.00491333 C-161.96212326 269.00773315 -162.98424408 269.01055298 -164.03733826 269.01345825 C-165.37766758 269.01402379 -165.37766758 269.01402379 -166.74507427 269.01460075 C-168.75932229 268.91692676 -168.75932229 268.91692676 -169.76226807 270.14044189 Z M30.23773193 270.14044189 C29.14575676 275.86177663 29.41186815 280.87879544 30.11273193 286.64044189 C30.20425537 287.45641846 30.29577881 288.27239502 30.39007568 289.11309814 C30.78216329 292.55352881 31.21404984 295.97981917 31.71917725 299.40582275 C32.27758924 303.42749334 32.70277554 307.44858188 33.10491943 311.48809814 C33.2696445 313.0786593 33.43502895 314.66915228 33.60101318 316.25958252 C33.85908733 318.73635698 34.11374288 321.21322595 34.35736084 323.69146729 C34.5956868 326.10409975 34.84897625 328.51477902 35.10491943 330.92559814 C35.17379364 331.66012711 35.24266785 332.39465607 35.31362915 333.15144348 C35.81588504 337.724454 36.65168929 341.30756976 39.23773193 345.14044189 C44.46750881 348.58312174 49.07082622 348.5687133 55.11102295 348.52862549 C56.08897827 348.53388245 57.06693359 348.5391394 58.07452393 348.54455566 C61.29705929 348.55772595 64.51909807 348.54902858 67.74163818 348.53887939 C69.98553054 348.54090081 72.22942226 348.54381282 74.47331238 348.5475769 C79.17146064 348.5519961 83.86943759 348.54558145 88.56756592 348.53155518 C94.58906706 348.51445384 100.61016731 348.52431328 106.63165379 348.54227257 C111.26333131 348.55311279 115.89491378 348.5496631 120.52659416 348.54188919 C122.74695826 348.53988837 124.967331 348.54234232 127.18768501 348.54932785 C130.28996784 348.55694715 133.391601 348.54533135 136.49383545 348.52862549 C137.41085739 348.53469818 138.32787933 348.54077087 139.27268982 348.54702759 C144.08922184 348.49898067 147.32712224 348.27242961 151.23773193 345.14044189 C155.16457789 340.5749662 155.1843805 334.78831647 155.80804443 329.03106689 C155.93460419 327.94968445 156.06116394 326.868302 156.19155884 325.75415039 C156.59309069 322.30075869 156.97811305 318.84575397 157.36273193 315.39044189 C157.62857537 313.08042109 157.89549096 310.77052341 158.16351318 308.46075439 C158.76499508 303.25490728 159.35635151 298.0480438 159.93669128 292.83979797 C160.13439799 291.06701149 160.33377762 289.29441062 160.5349884 287.52201843 C160.98136499 283.57349 161.39342437 279.67888704 161.42523193 275.70294189 C161.43941162 274.87923096 161.45359131 274.05552002 161.46820068 273.20684814 C161.43051789 270.91698053 161.43051789 270.91698053 159.23773193 269.14044189 C156.93870876 268.83903641 156.93870876 268.83903641 154.23396301 268.89320374 C152.64606712 268.886912 152.64606712 268.886912 151.02609253 268.88049316 C149.85980316 268.88611267 148.69351379 268.89173218 147.49188232 268.89752197 C146.26745926 268.89562363 145.04303619 268.89372528 143.7815094 268.89176941 C140.41780624 268.88869309 137.0543474 268.89458625 133.69067311 268.90472245 C130.17400715 268.9134932 126.65734545 268.91174568 123.14067078 268.91136169 C117.23330467 268.91229893 111.32598985 268.92099007 105.41864014 268.93463135 C98.58629312 268.95035023 91.75400234 268.95562973 84.92163855 268.95489579 C78.35422424 268.95428556 71.78682828 268.95939106 65.21941948 268.96768761 C62.42243748 268.97122047 59.62546198 268.97305087 56.82847786 268.97358131 C52.92329035 268.97477176 49.01814967 268.98448158 45.11297607 268.99517822 C43.36657837 268.99449844 43.36657837 268.99449844 41.5848999 268.99380493 C40.52348282 268.99806992 39.46206573 269.0023349 38.3684845 269.00672913 C37.44468019 269.00840497 36.52087587 269.01008081 35.56907749 269.01180744 C33.08066488 269.04641847 33.08066488 269.04641847 30.23773193 270.14044189 Z M232.23773193 271.14044189 C230.83322767 273.94945042 230.73761035 276.60759109 230.3739624 279.72979736 C230.29418152 280.40641418 230.21440063 281.08303101 230.13220215 281.78015137 C229.86906508 284.02219341 229.61168427 286.26484923 229.35491943 288.50762939 C229.17471719 290.06462032 228.99438711 291.62159645 228.81393433 293.17855835 C228.43638959 296.44500863 228.06196013 299.71179932 227.68939209 302.9788208 C227.21151761 307.16509877 226.72358899 311.35013632 226.2329998 315.53494072 C225.85746792 318.75141793 225.48849571 321.96862273 225.12137222 325.18606949 C224.9442513 326.72929533 224.76480841 328.2722565 224.583004 329.81493759 C224.32939348 331.97333918 224.08492543 334.1325912 223.8427124 336.29229736 C223.70138885 337.52092499 223.56006531 338.74955261 223.41445923 340.01541138 C223.25968565 342.75223914 223.3021023 344.59296654 224.23773193 347.14044189 C225.78677833 348.68948829 227.24714941 348.27587156 229.4042511 348.28761292 C230.30279312 348.29476822 231.20133514 348.30192352 232.12710571 348.30929565 C233.6176799 348.31332901 233.6176799 348.31332901 235.1383667 348.31744385 C236.179048 348.32401505 237.21972931 348.33058624 238.29194641 348.33735657 C241.75434432 348.35715152 245.21669865 348.36876823 248.67913818 348.37872314 C249.85975264 348.38279867 251.04036709 348.3868742 252.25675774 348.39107323 C258.50993553 348.41196413 264.7630912 348.42625062 271.01629639 348.43560791 C277.47373328 348.44665597 283.93082402 348.48102911 290.38813877 348.52077961 C295.35276423 348.54694618 300.31730742 348.5553 305.28199577 348.55888939 C307.66178655 348.56375816 310.04157359 348.57538034 312.42129707 348.59392738 C315.75825324 348.61831017 319.09431721 348.61735445 322.43133545 348.6104126 C323.41088196 348.62322266 324.39042847 348.63603271 325.3996582 348.64923096 C331.41683526 348.60373052 336.2965969 347.77428763 341.23773193 344.14044189 C344.6225494 339.42989537 346.33008419 334.46687495 348.00726318 328.95294189 C348.2493602 328.18083374 348.49145721 327.40872559 348.7408905 326.61322021 C349.51888382 324.12476405 350.28498688 321.63284491 351.05023193 319.14044189 C351.58255382 317.42477458 352.11543422 315.70928046 352.64886475 313.99395752 C353.70153398 310.60409974 354.7491634 307.21274522 355.79290771 303.82012939 C357.03558781 299.78532899 358.30184242 295.75865836 359.57757568 291.73419189 C360.21478534 289.70309584 360.85155035 287.6718602 361.48773193 285.64044189 C361.77495117 284.74196533 362.06217041 283.84348877 362.35809326 282.91778564 C363.71508937 278.52034405 364.57078472 274.80318096 364.23773193 270.14044189 C361.24858495 269.14405957 359.27956311 269.01245291 356.15840149 269.00672913 C355.10828888 269.00246414 354.05817627 268.99819916 352.97624207 268.99380493 C351.2485836 268.99448471 351.2485836 268.99448471 349.48602295 268.99517822 C347.66620911 268.9901403 347.66620911 268.9901403 345.80963135 268.98500061 C342.48111507 268.97712107 339.15266116 268.97382263 335.82413983 268.97318482 C333.04576659 268.97223534 330.26739933 268.96855662 327.48902839 268.96501273 C320.93447532 268.95686938 314.37993597 268.9544284 307.82537842 268.95513916 C301.06287886 268.9557401 294.30045904 268.94518488 287.53797966 268.9293955 C281.73238072 268.91632308 275.92680785 268.91095513 270.1211943 268.91159457 C266.65358327 268.91184962 263.18604311 268.90899431 259.71844673 268.89841652 C255.85187788 268.88694367 251.98541857 268.89148054 248.11883545 268.89752197 C246.96908737 268.89190247 245.81933929 268.88628296 244.63475037 268.88049316 C243.58181793 268.88468765 242.5288855 268.88888214 241.44404602 268.89320374 C240.52983666 268.89265897 239.61562731 268.8921142 238.67371464 268.89155293 C236.05756134 269.15885027 234.4460807 269.72989527 232.23773193 271.14044189 Z M-128.76226807 409.14044189 C-128.0374663 415.51543606 -128.0374663 415.51543606 -126.55401611 421.74420166 C-126.3120752 422.56007751 -126.07013428 423.37595337 -125.82086182 424.21655273 C-125.55789307 425.07960022 -125.29492432 425.94264771 -125.02398682 426.83184814 C-124.74724121 427.75878479 -124.47049561 428.68572144 -124.18536377 429.64074707 C-123.28067235 432.66368982 -122.36622024 435.6835452 -121.44976807 438.70294189 C-120.81465441 440.80211294 -120.17964579 442.90131577 -119.54473877 445.00054932 C-118.57280283 448.2132109 -117.60007748 451.42561761 -116.62425232 454.63710022 C-114.79098645 460.68284764 -113.00115781 466.73830346 -111.26731873 472.81330872 C-110.25172018 476.36397177 -109.21510426 479.90830611 -108.17526245 483.45193481 C-107.69762253 485.0985097 -107.22940223 486.74785101 -106.77139282 488.3999939 C-103.60695561 499.78603392 -99.69346646 508.87712619 -89.32476807 515.64044189 C-80.41164596 519.39333541 -71.31778682 519.44817967 -61.76617432 519.44122314 C-60.45567612 519.44550827 -59.14517792 519.4497934 -57.79496765 519.45420837 C-55.0425711 519.46161246 -52.29030303 519.46141852 -49.53790283 519.45611572 C-46.01160944 519.45027698 -42.48583382 519.46738462 -38.9596262 519.4904604 C-35.58261975 519.50870087 -32.20572982 519.50501435 -28.82867432 519.50372314 C-26.93031578 519.51753777 -26.93031578 519.51753777 -24.99360657 519.53163147 C-23.82486496 519.52540268 -22.65612335 519.51917389 -21.45196533 519.51275635 C-20.42289566 519.51338577 -19.39382599 519.5140152 -18.33357239 519.5146637 C-15.77139602 519.31124488 -15.77139602 519.31124488 -13.88304138 518.00840759 C-12.18224604 515.17373325 -12.72469023 513.12745678 -13.14019775 509.88067627 C-13.29736267 508.58923706 -13.45452759 507.29779785 -13.61645508 505.96722412 C-13.80524365 504.55615434 -13.99448393 503.14514493 -14.18414307 501.73419189 C-14.36675596 500.28852142 -14.54799138 498.84267633 -14.72790527 497.39666748 C-15.2059101 493.58835646 -15.70433259 489.78297483 -16.20648193 485.9777832 C-16.61282078 482.87184589 -17.00454022 479.76414875 -17.39548874 476.65624237 C-17.86171525 472.95241901 -18.33452126 469.24944779 -18.80914307 465.54669189 C-18.89960655 464.83949509 -18.99007004 464.13229828 -19.08327484 463.40367126 C-19.34091624 461.4020604 -19.60371934 459.40111597 -19.86676025 457.40020752 C-20.0157074 456.26119995 -20.16465454 455.12219238 -20.31811523 453.94866943 C-20.69475659 451.06940553 -20.69475659 451.06940553 -21.76226807 448.14044189 C-21.94465736 446.12257944 -22.08384327 444.10071132 -22.19976807 442.07794189 C-22.58782679 436.25099768 -23.08484441 430.4479217 -23.69976807 424.64044189 C-23.77445312 423.88754883 -23.84913818 423.13465576 -23.92608643 422.35894775 C-24.39429638 418.0655056 -25.08051607 414.16175294 -26.76226807 410.14044189 C-29.03804275 409.00255455 -30.27260231 409.01702126 -32.79916382 409.02018738 C-33.64332855 409.01881271 -34.48749329 409.01743805 -35.35723877 409.01602173 C-36.74906372 409.02141464 -36.74906372 409.02141464 -38.16900635 409.0269165 C-39.14465546 409.02677048 -40.12030457 409.02662445 -41.1255188 409.026474 C-44.36122841 409.02717254 -47.59688097 409.03496223 -50.83258057 409.04278564 C-53.07174651 409.04465003 -55.31091285 409.04607384 -57.55007935 409.04707336 C-63.45199707 409.05089691 -69.35389031 409.06072583 -75.25579834 409.07177734 C-81.27487863 409.08199495 -87.29396286 409.08657174 -93.31304932 409.09161377 C-105.12946635 409.10234822 -116.94586517 409.11942271 -128.76226807 409.14044189 Z M45.23773193 410.14044189 C44.439999 421.52960388 46.01548787 432.8592697 47.35491943 444.14434814 C47.57482932 446.04044414 47.79423123 447.93659912 48.01315308 449.83280945 C48.47039627 453.77752808 48.93325768 457.72153349 49.40032959 461.6651001 C49.99794949 466.71427192 50.58197061 471.7649082 51.16195488 476.81613255 C51.61148975 480.71921663 52.06777874 484.62148794 52.52615738 488.5235424 C52.74423915 490.38641038 52.9603116 492.24951474 53.17431259 494.11285591 C53.47363712 496.70957747 53.78196026 499.30507622 54.0927124 501.90045166 C54.22218765 503.04674042 54.22218765 503.04674042 54.35427856 504.21618652 C54.93149835 508.9344632 55.62987751 513.09408172 58.61273193 516.89044189 C62.11549572 519.58487557 66.20712871 519.27534169 70.47161865 519.30157471 C71.7332785 519.31118225 72.99493835 519.32078979 74.29483032 519.33068848 C75.66902485 519.33553656 77.04322148 519.33981536 78.41741943 519.34356689 C79.83222453 519.34932317 81.24702963 519.35508084 82.66183472 519.36083984 C85.62577679 519.37133151 88.58969188 519.37718629 91.5536499 519.38067627 C95.34209099 519.38615999 99.13017252 519.41019278 102.9185009 519.43864822 C105.84053576 519.45731737 108.76248468 519.46248244 111.68457413 519.46401215 C113.08076063 519.4670291 114.47694596 519.47502522 115.87307358 519.48819733 C117.83032811 519.50534696 119.78773197 519.50151993 121.74505615 519.49688721 C123.41240311 519.50235565 123.41240311 519.50235565 125.11343384 519.50793457 C128.91493443 519.06078658 131.12613057 518.40355804 134.23773193 516.14044189 C135.26071289 513.28696428 135.83244394 511.08431363 136.23773193 508.14044189 C136.34359745 507.44627293 136.44946297 506.75210396 136.55853653 506.03689957 C136.87279181 503.7986672 137.13364656 501.55919605 137.38275146 499.31280518 C137.5294931 498.04767593 137.5294931 498.04767593 137.67919922 496.75698853 C137.99838168 493.99216594 138.30974577 491.226531 138.62054443 488.46075439 C138.84158072 486.52312771 139.06292986 484.5855367 139.28457642 482.64797974 C139.74692406 478.5952386 140.20537136 474.5420802 140.66107178 470.48858643 C141.24309744 465.31437018 141.83498303 460.14133868 142.429842 454.96858406 C142.88859263 450.96942498 143.34197497 446.96967092 143.79378891 442.96972275 C144.00980931 441.06311076 144.22748569 439.1566856 144.44690323 437.25046158 C144.75389029 434.57651327 145.05358608 431.90183993 145.35150146 429.22686768 C145.44186676 428.4525238 145.53223206 427.67817993 145.62533569 426.88037109 C146.23740661 421.28608238 146.33154875 415.76542495 146.23773193 410.14044189 C142.79281978 408.41798582 138.82155584 409.00259213 135.03045654 409.01104736 C134.07592087 409.00929504 133.12138519 409.00754272 132.13792419 409.0057373 C128.97195638 409.00132363 125.8060441 409.00425486 122.64007568 409.00762939 C120.44814544 409.00695627 118.25621527 409.00598618 116.06428528 409.00473022 C111.46673879 409.00325395 106.86921171 409.00540576 102.27166748 409.0100708 C96.36412228 409.01577139 90.45662248 409.01248654 84.54907894 409.00649834 C80.02223872 409.00289368 75.49540935 409.00403081 70.9685688 409.00662613 C68.78955645 409.00729549 66.61054313 409.00646666 64.43153191 409.00414658 C61.39286544 409.00162126 58.35427366 409.00545879 55.31561279 409.01104736 C54.40597778 409.00902313 53.49634277 409.0069989 52.55914307 409.00491333 C48.58130134 408.618369 48.58130134 408.618369 45.23773193 410.14044189 Z M217.23773193 412.14044189 C216.63871731 415.06786445 216.21240229 417.85227167 215.88739014 420.81182861 C215.7257991 422.14178612 215.7257991 422.14178612 215.5609436 423.49861145 C215.20729656 426.43775035 214.87257457 429.37870496 214.53851318 432.32012939 C214.29709951 434.36989021 214.05475079 436.41954111 213.81150818 438.46908569 C213.30342458 442.77399715 212.80424228 447.07981819 212.31170654 451.38653564 C211.68350401 456.87643117 211.03739869 462.36402534 210.38496113 467.85108757 C209.88228281 472.09034148 209.38737937 476.33047476 208.89491844 480.57092667 C208.65961308 482.59231957 208.42240868 484.61349244 208.1831913 486.63442612 C206.94104557 497.1777855 205.82573402 507.50714964 206.23773193 518.14044189 C209.33935707 519.17431694 211.53447094 519.28548729 214.7880249 519.31744385 C216.49658157 519.3366967 216.49658157 519.3366967 218.23965454 519.3563385 C219.47394196 519.36372543 220.70822937 519.37111237 221.97991943 519.37872314 C223.25440948 519.38679489 224.52889954 519.39486664 225.8420105 519.40318298 C228.54719679 519.41703079 231.25226101 519.42804269 233.9574585 519.43560791 C237.38777986 519.44658671 240.81743706 519.48088468 244.24752617 519.52077961 C247.55412725 519.5535812 250.86066848 519.55775547 254.16741943 519.56622314 C255.38146454 519.58373123 256.59550964 519.60123932 257.84634399 519.61927795 C268.57019328 519.59247594 278.74319008 517.66814166 287.45648193 511.09356689 C293.06130132 504.9479316 295.60198374 497.86987367 297.96038818 490.01934814 C298.2954689 488.93843399 298.63054962 487.85751984 298.9757843 486.74385071 C299.69611412 484.41931675 300.41197846 482.09339515 301.1237793 479.76623535 C302.63240757 474.85581605 304.1832816 469.95909259 305.73196411 465.06118774 C307.32448609 460.01540241 308.90113803 454.9647238 310.47674561 449.91363525 C311.28466773 447.32492603 312.09646144 444.73747525 312.91131592 442.15093994 C314.1098093 438.34642216 315.29718593 434.53851748 316.48382568 430.73028564 C316.84729599 429.58132309 317.2107663 428.43236053 317.58525085 427.24858093 C319.35564825 421.5325894 320.86688141 416.12804904 321.23773193 410.14044189 C319.07497464 407.9776846 313.99633903 408.98293275 310.99212646 408.97930908 C310.02144226 408.97434418 309.05075806 408.96937927 308.05065918 408.96426392 C304.82394718 408.94960066 301.59728434 408.94283343 298.37054443 408.93731689 C296.1371358 408.93156892 293.90372719 408.92581115 291.6703186 408.92004395 C286.98103606 408.90952213 282.29177072 408.90368718 277.60247803 408.90020752 C271.58403865 408.89471995 265.5658252 408.87069115 259.54745674 408.84223557 C254.93217294 408.82364221 250.31694392 408.81840535 245.70162582 408.81687164 C243.48238769 408.81383717 241.2631507 408.8057821 239.04394913 408.79268646 C235.94316513 408.77569479 232.84293769 408.77748941 229.74212646 408.78399658 C228.81940948 408.7747818 227.8966925 408.76556702 226.9460144 408.756073 C226.10192017 408.76164215 225.25782593 408.7672113 224.38815308 408.77294922 C223.65478289 408.77148266 222.9214127 408.7700161 222.16581917 408.7685051 C219.6333872 409.25702274 218.7759267 410.09454851 217.23773193 412.14044189 Z " fill="#FE7605" transform="translate(422.76226806640625,173.85955810546875)"/>
<path d="M0 0 C2.97 0 5.94 0 9 0 C9 0.33 9 0.66 9 1 C6.03 1 3.06 1 0 1 C0 0.67 0 0.34 0 0 Z " fill="#FC7B04" transform="translate(499,520)"/>
<path d="M0 0 C2.64 0 5.28 0 8 0 C8 0.33 8 0.66 8 1 C5.36 1 2.72 1 0 1 C0 0.67 0 0.34 0 0 Z " fill="#FD7A04" transform="translate(368,520)"/>
<path d="M0 0 C2.31 0 4.62 0 7 0 C7 0.33 7 0.66 7 1 C4.69 1 2.38 1 0 1 C0 0.67 0 0.34 0 0 Z " fill="#FD7B05" transform="translate(528,520)"/>
<path d="M0 0 C1.98 0 3.96 0 6 0 C6 0.33 6 0.66 6 1 C4.02 1 2.04 1 0 1 C0 0.67 0 0.34 0 0 Z " fill="#FC7A04" transform="translate(739,520)"/>
<path d="M0 0 C1.65 0 3.3 0 5 0 C5 0.33 5 0.66 5 1 C3.35 1 1.7 1 0 1 C0 0.67 0 0.34 0 0 Z " fill="#FD7B04" transform="translate(514,520)"/>
<path d="M0 0 C1.65 0 3.3 0 5 0 C5 0.33 5 0.66 5 1 C3.35 1 1.7 1 0 1 C0 0.67 0 0.34 0 0 Z " fill="#FC7A03" transform="translate(377,520)"/>
<path d="M0 0 C1.65 0 3.3 0 5 0 C5 0.33 5 0.66 5 1 C3.35 1 1.7 1 0 1 C0 0.67 0 0.34 0 0 Z " fill="#FD7A04" transform="translate(327,520)"/>
<path d="M0 0 C1.65 0 3.3 0 5 0 C5 0.33 5 0.66 5 1 C3.35 1 1.7 1 0 1 C0 0.67 0 0.34 0 0 Z " fill="#FA7B04" transform="translate(303,520)"/>
<path d="M0 0 C4 1 4 1 4 1 Z " fill="#FC7C05" transform="translate(544,520)"/>
<path d="M0 0 C4 1 4 1 4 1 Z " fill="#FD7B05" transform="translate(520,520)"/>
<path d="M0 0 C4 1 4 1 4 1 Z " fill="#FC7A04" transform="translate(490,520)"/>
<path d="M0 0 C3 1 3 1 3 1 Z " fill="#F07306" transform="translate(725,751)"/>
<path d="" fill="#FE7C07" transform="translate(0,0)"/>
<path d="" fill="#FE7A07" transform="translate(0,0)"/>
<path d="" fill="#FE7A05" transform="translate(0,0)"/>
<path d="M0 0 C3 1 3 1 3 1 Z " fill="#FC7C05" transform="translate(752,520)"/>
<path d="M0 0 C3 1 3 1 3 1 Z " fill="#FD7B03" transform="translate(551,520)"/>
<path d="M0 0 C3 1 3 1 3 1 Z " fill="#FD7B07" transform="translate(483,520)"/>
<path d="M0 0 C3 1 3 1 3 1 Z " fill="#FB7B04" transform="translate(477,520)"/>
<path d="M0 0 C3 1 3 1 3 1 Z " fill="#FC7A05" transform="translate(352,520)"/>
<path d="M0 0 C3 1 3 1 3 1 Z " fill="#FD7A04" transform="translate(340,520)"/>
<path d="" fill="#FA7404" transform="translate(0,0)"/>
<path d="" fill="#F87708" transform="translate(0,0)"/>
<path d="" fill="#FD7806" transform="translate(0,0)"/>
<path d="" fill="#F57407" transform="translate(0,0)"/>
<path d="" fill="#FF7B06" transform="translate(0,0)"/>
<path d="" fill="#FE7A05" transform="translate(0,0)"/>
<path d="" fill="#F77404" transform="translate(0,0)"/>
<path d="" fill="#FD7A06" transform="translate(0,0)"/>
<path d="M0 0 C2 1 2 1 2 1 Z " fill="#FC7B04" transform="translate(748,520)"/>
<path d="M0 0 C2 1 2 1 2 1 Z " fill="#FC7A04" transform="translate(714,520)"/>
<path d="M0 0 C2 1 2 1 2 1 Z " fill="#FB7C04" transform="translate(691,520)"/>
<path d="M0 0 C2 1 2 1 2 1 Z " fill="#FB7A04" transform="translate(681,520)"/>
<path d="M0 0 C2 1 2 1 2 1 Z " fill="#FB7A04" transform="translate(677,520)"/>
<path d="M0 0 C2 1 2 1 2 1 Z " fill="#FD7C05" transform="translate(674,520)"/>
<path d="M0 0 C2 1 2 1 2 1 Z " fill="#FA7904" transform="translate(661,520)"/>
<path d="M0 0 C2 1 2 1 2 1 Z " fill="#FD7C04" transform="translate(555,520)"/>
<path d="M0 0 C2 1 2 1 2 1 Z " fill="#FC7D06" transform="translate(538,520)"/>
<path d="M0 0 C2 1 2 1 2 1 Z " fill="#FB7804" transform="translate(469,520)"/>
<path d="M0 0 C2 1 2 1 2 1 Z " fill="#FB7A03" transform="translate(356,520)"/>
<path d="M0 0 C2 1 2 1 2 1 Z " fill="#FB7B04" transform="translate(317,520)"/>
<path d="M0 0 C2 1 2 1 2 1 Z " fill="#FB7903" transform="translate(311,520)"/>
<path d="" fill="#FD7A06" transform="translate(0,0)"/>
<path d="" fill="#FF7A05" transform="translate(0,0)"/>
<path d="" fill="#F97706" transform="translate(0,0)"/>
<path d="" fill="#FE7805" transform="translate(0,0)"/>
<path d="" fill="#FC7908" transform="translate(0,0)"/>
<path d="M0 0 C2 1 2 1 2 1 Z " fill="#F47707" transform="translate(596,172)"/>
<path d="M0 0 C2 1 2 1 2 1 Z " fill="#F57806" transform="translate(588,172)"/>
<path d="" fill="#130600" transform="translate(0,0)"/>
<path d="" fill="#F37105" transform="translate(0,0)"/>
<path d="" fill="#FF7C06" transform="translate(0,0)"/>
<path d="" fill="#FE7A08" transform="translate(0,0)"/>
<path d="" fill="#F77405" transform="translate(0,0)"/>
<path d="" fill="#FD7B05" transform="translate(0,0)"/>
<path d="" fill="#F87306" transform="translate(0,0)"/>
<path d="" fill="#FF7D08" transform="translate(0,0)"/>
<path d="" fill="#FD7807" transform="translate(0,0)"/>
<path d="" fill="#FD7B05" transform="translate(0,0)"/>
<path d="" fill="#FC7905" transform="translate(0,0)"/>
<path d="" fill="#F47506" transform="translate(0,0)"/>
<path d="" fill="#FF7B05" transform="translate(0,0)"/>
<path d="" fill="#FF7A06" transform="translate(0,0)"/>
<path d="" fill="#FE7B06" transform="translate(0,0)"/>
<path d="" fill="#F57406" transform="translate(0,0)"/>
<path d="" fill="#FE7A07" transform="translate(0,0)"/>
<path d="" fill="#F57607" transform="translate(0,0)"/>
<path d="" fill="#FF7B07" transform="translate(0,0)"/>
<path d="" fill="#FF7B06" transform="translate(0,0)"/>
<path d="" fill="#F67505" transform="translate(0,0)"/>
<path d="" fill="#FD7905" transform="translate(0,0)"/>
<path d="" fill="#F87805" transform="translate(0,0)"/>
<path d="" fill="#FF7A05" transform="translate(0,0)"/>
<path d="" fill="#FE7B06" transform="translate(0,0)"/>
<path d="" fill="#F97605" transform="translate(0,0)"/>
<path d="" fill="#F87404" transform="translate(0,0)"/>
<path d="" fill="#F77608" transform="translate(0,0)"/>
<path d="" fill="#F77605" transform="translate(0,0)"/>
<path d="" fill="#F87607" transform="translate(0,0)"/>
<path d="" fill="#F87808" transform="translate(0,0)"/>
<path d="" fill="#FD7B04" transform="translate(0,0)"/>
<path d="" fill="#FB7903" transform="translate(0,0)"/>
<path d="" fill="#FD7C05" transform="translate(0,0)"/>
<path d="" fill="#FD7C04" transform="translate(0,0)"/>
<path d="" fill="#FC7D03" transform="translate(0,0)"/>
<path d="" fill="#FA7A04" transform="translate(0,0)"/>
<path d="" fill="#FB7A05" transform="translate(0,0)"/>
<path d="" fill="#FD7B03" transform="translate(0,0)"/>
<path d="" fill="#FD7804" transform="translate(0,0)"/>
<path d="" fill="#FE7B05" transform="translate(0,0)"/>
<path d="" fill="#FD7A04" transform="translate(0,0)"/>
<path d="" fill="#FA7A05" transform="translate(0,0)"/>
<path d="" fill="#FD7D05" transform="translate(0,0)"/>
<path d="" fill="#FA7C05" transform="translate(0,0)"/>
<path d="" fill="#FC7C02" transform="translate(0,0)"/>
<path d="" fill="#FE7C08" transform="translate(0,0)"/>
<path d="" fill="#FD7B05" transform="translate(0,0)"/>
<path d="" fill="#FB7B05" transform="translate(0,0)"/>
<path d="" fill="#FB7B06" transform="translate(0,0)"/>
<path d="" fill="#FF7A06" transform="translate(0,0)"/>
<path d="" fill="#FC7C06" transform="translate(0,0)"/>
<path d="" fill="#FD7B04" transform="translate(0,0)"/>
<path d="" fill="#FD7A04" transform="translate(0,0)"/>
<path d="" fill="#FC7A03" transform="translate(0,0)"/>
<path d="" fill="#FE7D06" transform="translate(0,0)"/>
<path d="" fill="#FD7D05" transform="translate(0,0)"/>
<path d="" fill="#FA7D03" transform="translate(0,0)"/>
<path d="" fill="#FD7D04" transform="translate(0,0)"/>
<path d="" fill="#FD7906" transform="translate(0,0)"/>
<path d="" fill="#FA7C04" transform="translate(0,0)"/>
<path d="" fill="#FD7B04" transform="translate(0,0)"/>
<path d="" fill="#FC7A05" transform="translate(0,0)"/>
<path d="" fill="#FB7B05" transform="translate(0,0)"/>
<path d="" fill="#FD7A04" transform="translate(0,0)"/>
<path d="" fill="#FC7B05" transform="translate(0,0)"/>
<path d="" fill="#FB7C06" transform="translate(0,0)"/>
<path d="" fill="#FC7904" transform="translate(0,0)"/>
<path d="" fill="#FD7B05" transform="translate(0,0)"/>
<path d="" fill="#FC7903" transform="translate(0,0)"/>
<path d="" fill="#F77506" transform="translate(0,0)"/>
<path d="" fill="#FF7C04" transform="translate(0,0)"/>
<path d="" fill="#FF7B06" transform="translate(0,0)"/>
<path d="" fill="#FF7906" transform="translate(0,0)"/>
<path d="" fill="#F97405" transform="translate(0,0)"/>
<path d="" fill="#FE7904" transform="translate(0,0)"/>
<path d="" fill="#FF7A05" transform="translate(0,0)"/>
<path d="" fill="#FE7A07" transform="translate(0,0)"/>
<path d="" fill="#FC7604" transform="translate(0,0)"/>
<path d="" fill="#FD7906" transform="translate(0,0)"/>
<path d="" fill="#FF7A07" transform="translate(0,0)"/>
<path d="" fill="#F97907" transform="translate(0,0)"/>
<path d="" fill="#FB7809" transform="translate(0,0)"/>
<path d="" fill="#FF7A08" transform="translate(0,0)"/>
<path d="" fill="#FF7B04" transform="translate(0,0)"/>
<path d="" fill="#FF7A05" transform="translate(0,0)"/>
<path d="" fill="#FE7A06" transform="translate(0,0)"/>
<path d="" fill="#FF7A05" transform="translate(0,0)"/>
<path d="" fill="#F67607" transform="translate(0,0)"/>
<path d="" fill="#E76D06" transform="translate(0,0)"/>
<path d="" fill="#FC7B04" transform="translate(0,0)"/>
<path d="" fill="#FE7A05" transform="translate(0,0)"/>
<path d="" fill="#FC7B05" transform="translate(0,0)"/>
<path d="" fill="#FD7903" transform="translate(0,0)"/>
<path d="" fill="#FF7706" transform="translate(0,0)"/>
<path d="" fill="#FE7A08" transform="translate(0,0)"/>
<path d="" fill="#FC7B05" transform="translate(0,0)"/>
<path d="" fill="#FF7C04" transform="translate(0,0)"/>
<path d="" fill="#FE7705" transform="translate(0,0)"/>
<path d="" fill="#FE7B07" transform="translate(0,0)"/>
<path d="" fill="#FC7A03" transform="translate(0,0)"/>
<path d="" fill="#FD7907" transform="translate(0,0)"/>
<path d="" fill="#FD7B07" transform="translate(0,0)"/>
<path d="" fill="#FC7907" transform="translate(0,0)"/>
<path d="" fill="#FA7908" transform="translate(0,0)"/>
<path d="" fill="#FD7D04" transform="translate(0,0)"/>
<path d="" fill="#EE7209" transform="translate(0,0)"/>
<path d="" fill="#F67509" transform="translate(0,0)"/>
<path d="" fill="#F07505" transform="translate(0,0)"/>
<path d="" fill="#EF7408" transform="translate(0,0)"/>
<path d="" fill="#EF7306" transform="translate(0,0)"/>
<path d="" fill="#F27605" transform="translate(0,0)"/>
<path d="" fill="#F47606" transform="translate(0,0)"/>
<path d="" fill="#F57807" transform="translate(0,0)"/>
<path d="" fill="#F77706" transform="translate(0,0)"/>
<path d="" fill="#F57904" transform="translate(0,0)"/>
<path d="" fill="#F67806" transform="translate(0,0)"/>
<path d="" fill="#F67807" transform="translate(0,0)"/>
<path d="" fill="#F67A05" transform="translate(0,0)"/>
<path d="" fill="#F67805" transform="translate(0,0)"/>
<path d="" fill="#F67907" transform="translate(0,0)"/>
<path d="" fill="#F77707" transform="translate(0,0)"/>
<path d="" fill="#F37705" transform="translate(0,0)"/>
<path d="" fill="#F57806" transform="translate(0,0)"/>
<path d="" fill="#F47606" transform="translate(0,0)"/>
<path d="" fill="#3F1A00" transform="translate(0,0)"/>
</svg>
